<svg width="125" height="155" viewBox="0 0 125 155" fill="none" xmlns="http://www.w3.org/2000/svg">
<path d="M77.9009 138.64C77.9009 138.075 77.9211 137.6 77.9614 137.217C78.0119 136.823 78.0674 136.515 78.1279 136.293C78.1077 136.122 78.0825 135.945 78.0522 135.764C78.0522 135.552 78.0775 135.199 78.1279 134.704C78.1784 134.21 78.2541 133.564 78.355 132.767C78.4458 132 78.5215 131.409 78.582 130.996C78.6527 130.572 78.7031 130.314 78.7334 130.224C78.7132 130.052 78.688 129.865 78.6577 129.664C78.6375 129.462 78.5972 129.24 78.5366 128.998L78.2036 128.755L78.1279 128.574C78.1481 128.291 78.1632 128.009 78.1733 127.726C78.1935 127.433 78.2288 127.141 78.2793 126.848C78.2995 126.485 78.3449 126.167 78.4155 125.895C78.4963 125.622 78.577 125.385 78.6577 125.183C78.688 125.133 78.7183 125.062 78.7485 124.971C78.7889 124.88 78.8394 124.785 78.8999 124.684C78.9907 124.32 79.0815 123.957 79.1724 123.594C79.2632 123.23 79.359 122.877 79.46 122.534C79.6113 122.191 79.8283 121.914 80.1108 121.702C80.3934 121.49 80.7365 121.354 81.1401 121.293C81.4227 121.142 81.6649 121.031 81.8667 120.96C82.0685 120.879 82.23 120.839 82.3511 120.839C82.4924 120.839 82.6034 120.894 82.6841 121.005C82.7648 121.116 82.8052 121.273 82.8052 121.475C82.8052 121.555 82.7648 121.838 82.6841 122.322C82.6034 122.797 82.4772 123.458 82.3057 124.305C82.2754 124.588 82.2249 124.926 82.1543 125.319C82.0837 125.703 81.9878 126.162 81.8667 126.697C81.7153 127.292 81.564 127.948 81.4126 128.665C81.2713 129.371 81.1401 130.153 81.019 131.011C80.9686 131.374 80.9131 131.732 80.8525 132.085C80.792 132.439 80.7365 132.797 80.686 133.16C80.6255 133.574 80.57 133.967 80.5195 134.341C80.4792 134.704 80.459 135.032 80.459 135.325C80.459 135.436 80.464 135.542 80.4741 135.643C80.4943 135.743 80.5044 135.839 80.5044 135.93C80.5246 136.041 80.5195 136.188 80.4893 136.369C80.4691 136.551 80.4438 136.768 80.4136 137.02C80.3732 137.262 80.3379 137.484 80.3076 137.686C80.2773 137.878 80.2622 138.024 80.2622 138.125C80.2622 138.64 80.2723 139.058 80.2925 139.381C80.3228 139.694 80.353 139.901 80.3833 140.002C80.4539 140.274 80.5246 140.567 80.5952 140.88C80.5952 141.051 80.3682 141.309 79.9141 141.652C79.46 141.985 79.132 142.151 78.9302 142.151C78.8091 142.151 78.6981 142.106 78.5972 142.015C78.5063 141.934 78.4105 141.808 78.3096 141.637C78.2389 141.475 78.1834 141.329 78.1431 141.198C78.1027 141.067 78.0825 140.945 78.0825 140.834C78.0825 140.774 78.1027 140.678 78.1431 140.547C78.1834 140.416 78.2036 140.32 78.2036 140.259C78.1229 139.957 78.0321 139.704 77.9312 139.502C77.911 139.603 77.9009 139.583 77.9009 139.442C77.9009 139.301 77.9009 139.033 77.9009 138.64ZM82.4116 137.489L82.4722 137.368C82.5327 137.287 82.6134 137.187 82.7144 137.065C82.8052 136.944 82.9162 136.803 83.0474 136.642C83.7638 135.976 84.4601 135.183 85.1362 134.265C85.8224 133.337 86.4985 132.272 87.1646 131.071C87.2453 130.96 87.3361 130.814 87.437 130.632C87.5379 130.451 87.6489 130.224 87.77 129.951C87.77 129.891 87.7549 129.845 87.7246 129.815C87.6943 129.785 87.6439 129.77 87.5732 129.77C87.5127 129.77 87.4118 129.79 87.2705 129.83C87.1393 129.86 87.0384 129.875 86.9678 129.875H85.0757C84.995 129.875 84.8587 129.87 84.667 129.86C84.4854 129.85 84.3542 129.845 84.2734 129.845C84.1725 129.795 84.0767 129.754 83.9858 129.724C83.9051 129.684 83.8244 129.643 83.7437 129.603C83.6226 129.563 83.5267 129.512 83.4561 129.452C83.3955 129.381 83.3652 129.3 83.3652 129.209C83.3652 128.564 83.4308 128.069 83.562 127.726C83.7033 127.383 83.9152 127.211 84.1978 127.211C84.4803 127.211 84.7427 127.227 84.9849 127.257C85.2371 127.277 85.4591 127.307 85.6509 127.348C85.8022 127.317 85.9435 127.287 86.0747 127.257C86.3472 127.257 86.5793 127.267 86.771 127.287C86.9627 127.307 87.109 127.333 87.21 127.363C87.3411 127.333 87.4673 127.307 87.5884 127.287C87.7196 127.257 87.8608 127.227 88.0122 127.196L88.5117 127.348C88.8649 127.307 89.2383 126.813 89.6318 125.864C90.0355 124.916 90.4644 124.441 90.9185 124.441C91.1606 124.441 91.3473 124.517 91.4785 124.668C91.6097 124.82 91.6753 125.042 91.6753 125.334C91.6753 125.567 91.6047 125.874 91.4634 126.258C91.3322 126.631 91.2565 126.914 91.2363 127.105C91.2565 127.146 91.2817 127.191 91.312 127.242C91.3524 127.282 91.4079 127.333 91.4785 127.393C91.5391 127.433 91.5794 127.504 91.5996 127.605C91.6299 127.696 91.645 127.812 91.645 127.953C91.645 128.559 91.6147 129.028 91.5542 129.361C91.5037 129.684 91.418 129.85 91.2969 129.86L90.2676 130.072C90.2474 130.173 90.2222 130.299 90.1919 130.451C90.1616 130.592 90.1213 130.758 90.0708 130.95C89.8993 131.455 89.7075 132.096 89.4956 132.873C89.2837 133.65 89.0465 134.568 88.7842 135.627C88.6227 136.475 88.4966 137.161 88.4058 137.686C88.325 138.211 88.2847 138.564 88.2847 138.746C88.2847 138.907 88.3099 139.028 88.3604 139.109C88.4108 139.19 88.4865 139.23 88.5874 139.23C88.6479 139.23 88.8649 139.084 89.2383 138.791C89.6217 138.498 90.1515 138.064 90.8276 137.489L91.418 138.882C91.3171 138.993 91.1758 139.124 90.9941 139.275C90.8125 139.427 90.5955 139.588 90.3433 139.76C90.2424 139.871 90.1162 139.997 89.9648 140.138C89.8135 140.269 89.647 140.426 89.4653 140.607C89.2837 140.809 89.1021 141.011 88.9204 141.213C88.7489 141.415 88.5723 141.611 88.3906 141.803C88.1484 142.066 87.9113 142.252 87.6792 142.363C87.4471 142.484 87.2301 142.545 87.0283 142.545C86.5843 142.545 86.2513 142.414 86.0293 142.151C85.8174 141.889 85.7114 141.49 85.7114 140.956C85.7114 140.37 85.7316 139.866 85.772 139.442C85.8123 139.008 85.8779 138.66 85.9688 138.397C86.0091 138.317 86.0394 138.246 86.0596 138.186C86.0596 138.085 86.0747 137.948 86.105 137.777C86.1353 137.605 86.1706 137.403 86.2109 137.171C86.2715 136.778 86.3371 136.384 86.4077 135.991C86.5187 135.749 86.6348 135.491 86.7559 135.219C86.7559 135.168 86.7155 135.123 86.6348 135.083L86.4834 135.173C86.332 135.416 86.1353 135.673 85.8931 135.945C85.6509 136.208 85.3633 136.485 85.0303 136.778C84.5156 137.272 83.9909 137.772 83.4561 138.276C83.4258 138.327 83.3703 138.403 83.2896 138.503C83.2088 138.604 83.118 138.73 83.0171 138.882C82.9666 138.761 82.9061 138.609 82.8354 138.428C82.7547 138.236 82.674 138.019 82.5933 137.777C82.5731 137.716 82.5479 137.661 82.5176 137.61C82.4873 137.56 82.452 137.52 82.4116 137.489ZM91.2817 136.823L92.6592 135.915C92.7096 135.865 92.7702 135.799 92.8408 135.718C92.9115 135.627 92.9922 135.501 93.083 135.34C93.1536 135.209 93.2445 135.098 93.3555 135.007C93.4766 134.916 93.6128 134.835 93.7642 134.765C93.8449 134.664 93.9609 134.538 94.1123 134.386C94.2637 134.235 94.4554 134.058 94.6875 133.856C94.7985 133.796 94.9398 133.71 95.1113 133.599C95.2829 133.478 95.4696 133.322 95.6714 133.13C96.5897 132.262 97.3919 131.611 98.0781 131.177C98.7744 130.743 99.3597 130.526 99.834 130.526C100.096 130.526 100.288 130.582 100.409 130.693C100.54 130.804 100.606 130.96 100.606 131.162C100.606 131.374 100.566 131.561 100.485 131.722C100.414 131.884 100.298 132.02 100.137 132.131C99.8844 132.312 99.612 132.514 99.3193 132.736C99.1579 132.948 98.9611 133.175 98.729 133.417C98.4969 133.65 98.2244 133.882 97.9116 134.114C97.8107 134.245 97.7249 134.361 97.6543 134.462C97.6038 134.512 97.508 134.603 97.3667 134.734C97.2254 134.866 97.0387 135.017 96.8066 135.188C96.7057 135.41 96.4837 135.698 96.1406 136.051C95.8076 136.404 95.3586 136.828 94.7935 137.323C94.7228 137.393 94.5967 137.555 94.415 137.807C94.2334 138.059 93.9963 138.392 93.7036 138.806L93.8096 138.942C94.0316 138.872 94.2637 138.751 94.5059 138.579C94.748 138.408 95.0155 138.181 95.3081 137.898C95.6512 137.585 95.9287 137.333 96.1406 137.141C96.3626 136.939 96.519 136.808 96.6099 136.748C96.6805 136.707 96.7511 136.667 96.8218 136.626C96.8924 136.586 96.9731 136.536 97.064 136.475C97.5282 135.92 97.9621 135.511 98.3657 135.249C98.7694 134.977 99.1427 134.84 99.4858 134.84C99.6978 134.84 99.8592 134.926 99.9702 135.098C100.081 135.259 100.147 135.506 100.167 135.839C100.147 136.344 100.137 136.828 100.137 137.292C100.127 137.615 100.212 137.908 100.394 138.17C100.586 138.423 100.833 138.549 101.136 138.549C101.227 138.549 101.312 138.524 101.393 138.473C101.484 138.423 101.575 138.357 101.666 138.276C101.736 138.186 101.802 138.1 101.862 138.019C101.933 137.938 102.004 137.858 102.074 137.777C102.115 137.757 102.17 137.721 102.241 137.671C102.321 137.62 102.397 137.56 102.468 137.489C102.609 137.792 102.725 138.059 102.816 138.292C102.917 138.514 102.993 138.71 103.043 138.882C102.811 139.094 102.579 139.316 102.347 139.548C102.125 139.77 101.888 139.982 101.635 140.184C101.333 140.416 101.04 140.592 100.757 140.713C100.475 140.824 100.192 140.88 99.9097 140.88C99.2537 140.88 98.7492 140.693 98.396 140.32C98.0428 139.946 97.8359 139.381 97.7754 138.625C97.7754 138.534 97.7603 138.443 97.73 138.352C97.7098 138.251 97.6593 138.15 97.5786 138.049C97.5282 138.1 97.4727 138.155 97.4121 138.216C97.3516 138.266 97.2809 138.337 97.2002 138.428C97.069 138.529 96.9025 138.655 96.7007 138.806C96.509 138.958 96.2819 139.139 96.0195 139.351C95.6663 139.714 95.3687 140.012 95.1265 140.244C94.8843 140.476 94.7127 140.643 94.6118 140.744C94.41 140.915 94.1729 141.087 93.9004 141.258C93.638 141.43 93.3403 141.606 93.0073 141.788C92.7954 141.899 92.6138 141.985 92.4624 142.045C92.311 142.116 92.2 142.151 92.1294 142.151C91.645 142.151 91.2868 142.035 91.0547 141.803C90.8226 141.561 90.7065 141.193 90.7065 140.698C90.7065 140.426 90.7671 140.168 90.8882 139.926C90.9992 139.674 91.1707 139.432 91.4028 139.2C91.423 139.069 91.4331 138.963 91.4331 138.882C91.4331 138.831 91.418 138.781 91.3877 138.73C91.3675 138.67 91.3372 138.604 91.2969 138.534C91.2363 138.392 91.1707 138.236 91.1001 138.064C91.0194 137.883 90.9336 137.691 90.8428 137.489C90.8831 137.449 90.9437 137.373 91.0244 137.262C91.0951 137.141 91.1808 136.995 91.2817 136.823ZM102.453 137.489C102.543 137.388 102.634 137.267 102.725 137.126C102.816 136.975 102.937 136.813 103.088 136.642L104.087 135.764C104.128 135.733 104.148 135.693 104.148 135.643C104.158 135.592 104.163 135.521 104.163 135.431C104.153 135.299 104.138 135.194 104.118 135.113C104.118 134.881 104.163 134.492 104.254 133.947C104.345 133.402 104.425 133.074 104.496 132.963L104.405 132.676C104.536 132 104.718 131.263 104.95 130.466C105.192 129.659 105.465 128.786 105.768 127.847C105.868 127.686 105.974 127.484 106.085 127.242C106.196 126.989 106.323 126.707 106.464 126.394C106.635 125.869 106.862 125.319 107.145 124.744C107.428 124.169 107.745 123.579 108.099 122.973C108.573 122.176 108.992 121.576 109.355 121.172C109.728 120.768 110.061 120.566 110.354 120.566C110.939 120.566 111.338 120.682 111.55 120.915C111.772 121.137 111.883 121.56 111.883 122.186C111.883 122.347 111.853 122.6 111.792 122.943C111.742 123.276 111.716 123.528 111.716 123.7C111.716 123.871 111.661 124.113 111.55 124.426C111.439 124.739 111.383 125.027 111.383 125.289C111.373 125.37 111.348 125.451 111.308 125.531L111.323 125.743C111.282 125.884 111.222 126.056 111.141 126.258C111.06 126.46 110.954 126.702 110.823 126.984C110.753 127.237 110.662 127.529 110.551 127.862C110.44 128.195 110.309 128.559 110.157 128.952C110.097 129.053 110.016 129.179 109.915 129.331C109.824 129.472 109.723 129.633 109.612 129.815C109.582 129.946 109.532 130.097 109.461 130.269C109.39 130.441 109.294 130.642 109.173 130.875C109.113 130.996 109.032 131.127 108.931 131.268C108.83 131.409 108.709 131.591 108.568 131.813C108.507 131.914 108.442 132.04 108.371 132.191C108.3 132.343 108.22 132.514 108.129 132.706C108.018 132.878 107.872 133.09 107.69 133.342C107.508 133.594 107.301 133.892 107.069 134.235C106.757 134.79 106.434 135.32 106.101 135.824C106.101 136.803 106.292 137.545 106.676 138.049C107.069 138.544 107.655 138.791 108.432 138.791C108.482 138.791 108.633 138.756 108.886 138.685C109.138 138.614 109.486 138.503 109.93 138.352C110.061 138.271 110.218 138.16 110.399 138.019C110.581 137.868 110.788 137.691 111.02 137.489L111.61 138.882C111.348 139.114 111.086 139.351 110.823 139.593C110.561 139.835 110.293 140.073 110.021 140.305C109.708 140.567 109.39 140.769 109.067 140.91C108.744 141.041 108.427 141.107 108.114 141.107C107.952 141.107 107.705 141.092 107.372 141.062C107.039 141.021 106.787 141.001 106.615 141.001C106.05 141.001 105.581 140.774 105.208 140.32C104.844 139.866 104.587 139.185 104.436 138.276C104.415 138.186 104.385 138.105 104.345 138.034C104.314 137.964 104.254 137.883 104.163 137.792C104.032 137.923 103.875 138.08 103.694 138.261C103.522 138.443 103.31 138.65 103.058 138.882L102.453 137.489ZM109.673 125.607L109.567 125.546C109.002 126.091 108.573 126.606 108.28 127.09C107.998 127.575 107.856 128.044 107.856 128.498C107.856 128.569 107.821 128.69 107.75 128.861C107.69 129.023 107.594 129.235 107.463 129.497C107.301 129.81 107.135 130.153 106.963 130.526C106.772 131.091 106.625 131.551 106.524 131.904C106.424 132.257 106.373 132.509 106.373 132.661L106.464 132.782C106.555 132.772 106.666 132.681 106.797 132.509C106.928 132.338 107.079 132.085 107.251 131.752C107.332 131.571 107.448 131.359 107.599 131.117C107.75 130.875 107.922 130.587 108.114 130.254C108.275 130.032 108.533 129.462 108.886 128.543C109.239 127.625 109.431 127.04 109.461 126.788C109.471 126.586 109.496 126.389 109.537 126.197C109.587 125.995 109.632 125.799 109.673 125.607ZM110.99 137.489C111.222 137.247 111.575 136.954 112.049 136.611C112.534 136.268 112.892 135.986 113.124 135.764C113.275 135.582 113.472 135.365 113.714 135.113C113.957 134.85 114.244 134.543 114.577 134.189C114.779 134.008 114.976 133.867 115.167 133.766C115.359 133.665 115.551 133.614 115.743 133.614C115.985 133.614 116.172 133.675 116.303 133.796C116.444 133.917 116.515 134.109 116.515 134.371C116.515 134.765 116.363 135.4 116.061 136.278C115.758 137.156 115.606 137.822 115.606 138.276C115.606 138.377 115.627 138.448 115.667 138.488C115.717 138.529 115.773 138.549 115.833 138.549L115.909 138.534C116.101 138.413 116.323 138.261 116.575 138.08C116.838 137.888 117.13 137.656 117.453 137.383C117.715 137.141 118.038 136.823 118.422 136.43C118.815 136.036 119.275 135.582 119.799 135.067C120.001 134.906 120.228 134.699 120.48 134.447C120.743 134.194 121.035 133.892 121.358 133.539C121.49 133.357 121.671 133.216 121.903 133.115C122.146 133.014 122.438 132.963 122.781 132.963C123.013 132.963 123.185 133.009 123.296 133.1C123.417 133.18 123.478 133.306 123.478 133.478C123.478 133.549 123.467 133.619 123.447 133.69C123.437 133.75 123.427 133.811 123.417 133.872C123.346 134.174 123.24 134.548 123.099 134.992C122.958 135.426 122.786 135.94 122.584 136.536C122.413 136.909 122.231 137.358 122.04 137.883C121.858 138.397 121.661 138.968 121.449 139.593L121.555 139.729C121.767 139.629 122.08 139.391 122.494 139.018C122.917 138.635 123.447 138.125 124.083 137.489L124.688 138.882C124.608 138.963 124.507 139.063 124.386 139.185C124.275 139.296 124.123 139.417 123.932 139.548C122.852 140.315 121.924 141.077 121.146 141.833C120.38 142.58 119.769 143.322 119.315 144.059C118.639 145.169 118.074 146.072 117.62 146.768C117.176 147.464 116.853 147.954 116.651 148.236C115.955 149.155 115.294 149.836 114.668 150.28C114.042 150.724 113.432 150.946 112.836 150.946C112.614 150.946 112.453 150.9 112.352 150.81C112.251 150.719 112.201 150.577 112.201 150.386C112.201 150.285 112.226 150.159 112.276 150.007C112.327 149.856 112.418 149.694 112.549 149.523C112.741 149.25 112.917 148.968 113.079 148.675L113.533 148.282C113.573 148.151 113.593 148.06 113.593 148.009C113.634 147.959 113.689 147.898 113.76 147.828C113.84 147.757 113.931 147.676 114.032 147.585C114.103 147.404 114.29 147.101 114.592 146.677C114.905 146.264 115.339 145.729 115.894 145.073C116.308 144.588 116.686 144.154 117.029 143.771C117.372 143.398 117.665 143.08 117.907 142.817C117.948 142.737 117.988 142.641 118.028 142.53C118.079 142.419 118.119 142.308 118.149 142.197C118.281 141.934 118.422 141.617 118.573 141.243C118.735 140.87 118.926 140.431 119.148 139.926C119.249 139.634 119.335 139.301 119.406 138.927C119.476 138.544 119.542 138.13 119.603 137.686C119.582 137.646 119.567 137.595 119.557 137.535C119.557 137.464 119.537 137.368 119.497 137.247C119.315 137.338 119.113 137.474 118.891 137.656C118.679 137.837 118.447 138.049 118.195 138.292C117.862 138.725 117.524 139.089 117.181 139.381C116.838 139.664 116.5 139.881 116.167 140.032C115.944 140.466 115.657 140.789 115.304 141.001C114.961 141.203 114.562 141.304 114.108 141.304C113.775 141.304 113.523 141.228 113.351 141.077C113.18 140.915 113.094 140.673 113.094 140.35C113.094 140.29 113.099 140.214 113.109 140.123C113.129 140.032 113.154 139.926 113.185 139.805C113.144 139.704 113.094 139.563 113.033 139.381C113.074 139.21 113.109 139.018 113.139 138.806C113.139 138.503 113.114 138.276 113.063 138.125C113.023 137.974 112.952 137.898 112.852 137.898L112.791 137.928C112.68 138.009 112.524 138.13 112.322 138.292C112.12 138.453 111.878 138.65 111.595 138.882C111.545 138.751 111.484 138.594 111.414 138.413C111.333 138.231 111.252 138.019 111.171 137.777C111.151 137.716 111.126 137.661 111.096 137.61C111.065 137.56 111.03 137.52 110.99 137.489Z" fill="#BBBBBB"/>
<path d="M-16.2734 30.8327C1.61708 13.1932 33.5057 18.2149 45.606 30.8672C55.2935 40.8478 64.0424 53.9668 62.6627 68.5526C61.9106 76.3734 57.0865 84.9073 49.0477 87.047C36.5587 90.3762 35.0679 79.3259 42.7479 71.7162C48.12 66.3255 59.1392 64.0543 66.2872 66.8962C81.6914 73.0613 93.9929 85.9363 99.7948 101.313" stroke="#BBBBBB" stroke-linecap="round" stroke-linejoin="round" stroke-dasharray="4.01 4.01"/>
</svg>
