<svg width="105" height="118" viewBox="0 0 105 118" fill="none" xmlns="http://www.w3.org/2000/svg">
<path d="M32.187 24.4893L32.7925 25.8818C32.6512 25.9928 32.3384 26.0887 31.854 26.1694C31.3797 26.2502 30.7591 26.3208 29.9922 26.3813C29.1042 27.2492 28.2161 27.9707 27.3281 28.5459C26.4502 29.1211 25.5773 29.5449 24.7095 29.8174C24.5076 29.8779 24.2756 29.9435 24.0132 30.0142C23.8517 30.0142 23.6751 29.9788 23.4834 29.9082C23.2917 29.8477 23.0798 29.7568 22.8477 29.6357C22.6055 29.4844 22.4188 29.3381 22.2876 29.1968C22.1564 29.0555 22.0908 28.9092 22.0908 28.7578C22.0908 28.4551 22.2371 28.1624 22.5298 27.8799C22.8224 27.5973 23.2513 27.3299 23.8164 27.0776C24.9466 26.5529 26.0617 26.0231 27.1616 25.4883C27.3231 25.4883 27.4391 25.5236 27.5098 25.5942C27.5804 25.6548 27.6157 25.7355 27.6157 25.8364C27.6157 26.1089 27.4189 26.341 27.0254 26.5327C26.6419 26.7144 26.4502 26.8455 26.4502 26.9263C26.5208 27.0272 26.5814 27.0776 26.6318 27.0776C26.763 27.0776 27.0506 26.8809 27.4946 26.4873C27.9487 26.0938 28.1707 25.8465 28.1606 25.7456L28.085 25.3975L28.1152 25.3369C28.3776 25.1048 28.5693 24.8979 28.6904 24.7163C28.8216 24.5347 28.8872 24.3883 28.8872 24.2773C28.8872 24.0251 28.7611 23.687 28.5088 23.2632C28.2565 22.8394 27.8781 22.3298 27.3735 21.7344C26.9901 21.2702 26.6066 20.8564 26.2231 20.4932C25.8397 20.1198 25.4714 19.7918 25.1182 19.5093C24.9769 19.3882 24.8558 19.2721 24.7549 19.1611C24.654 19.04 24.5732 18.929 24.5127 18.8281C24.4017 18.6263 24.3109 18.4598 24.2402 18.3286C24.1797 18.1974 24.1242 18.1117 24.0737 18.0713C24.0233 18.0107 23.9526 17.9401 23.8618 17.8594C23.7811 17.7686 23.6802 17.6676 23.5591 17.5566C23.3472 17.3346 23.1807 17.0269 23.0596 16.6333C22.9486 16.2397 22.8931 15.7503 22.8931 15.165C22.8931 14.7816 22.9435 14.4132 23.0444 14.0601C23.1554 13.6968 23.3118 13.3739 23.5137 13.0913C23.5439 13.0308 23.5742 12.9601 23.6045 12.8794C23.6348 12.7987 23.6701 12.7078 23.7104 12.6069C23.9425 12.1326 24.3361 11.623 24.8911 11.0781C25.4461 10.5231 26.1727 9.93783 27.0708 9.32227C27.1919 9.26172 27.3382 9.18099 27.5098 9.08008C27.6813 8.97917 27.873 8.84798 28.085 8.68652C28.2061 8.58561 28.3372 8.49479 28.4785 8.41406C28.6299 8.33333 28.8065 8.25765 29.0083 8.18701C29.2808 8.07601 29.5885 7.95492 29.9316 7.82373C30.4362 7.56136 30.855 7.36963 31.188 7.24854C31.521 7.12744 31.7733 7.06689 31.9448 7.06689C32.2778 7.06689 32.5251 7.16781 32.6865 7.36963C32.8581 7.57145 32.9438 7.8641 32.9438 8.24756C32.9438 8.67139 32.9085 9.01953 32.8379 9.29199C32.7773 9.55436 32.6916 9.73096 32.5806 9.82178C31.3898 10.7703 30.4312 11.4868 29.7046 11.9712C28.978 12.4455 28.4684 12.6826 28.1758 12.6826C28.0345 12.6826 27.9235 12.6423 27.8428 12.5615C27.762 12.4808 27.7217 12.3597 27.7217 12.1982C27.7217 11.9258 27.9487 11.6281 28.4028 11.3052C28.8569 10.9722 29.0789 10.7199 29.0688 10.5483L28.9326 10.4575C28.8822 10.4575 28.8216 10.4727 28.751 10.5029C28.6904 10.5332 28.6248 10.5736 28.5542 10.624C27.6662 11.3405 26.9951 11.9863 26.541 12.5615C26.097 13.1266 25.875 13.6211 25.875 14.0449C25.875 14.3779 25.9305 14.716 26.0415 15.0591C26.1626 15.4022 26.3341 15.7554 26.5562 16.1187C26.7176 16.3709 26.9497 16.6938 27.2524 17.0874C27.5653 17.4709 27.9588 17.9351 28.4331 18.48C29.089 19.2368 29.5936 19.8221 29.9468 20.2358C30.3 20.6496 30.4967 20.8665 30.5371 20.8867C30.7389 21.1491 30.9105 21.4115 31.0518 21.6738C31.193 21.9362 31.2889 22.1885 31.3394 22.4307C31.3898 22.6224 31.4251 22.8595 31.4453 23.1421C31.4655 23.4246 31.4756 23.7677 31.4756 24.1714C31.4756 24.4035 31.5109 24.5397 31.5815 24.5801C31.6522 24.6104 31.7682 24.6255 31.9297 24.6255C31.9902 24.6255 32.0356 24.6154 32.0659 24.5952C32.1063 24.5649 32.1466 24.5296 32.187 24.4893ZM32.1719 24.4893C32.2627 24.3883 32.3535 24.2673 32.4443 24.126C32.5352 23.9746 32.6562 23.8132 32.8076 23.6416L33.8066 22.7637C33.847 22.7334 33.8672 22.693 33.8672 22.6426C33.8773 22.5921 33.8823 22.5215 33.8823 22.4307C33.8722 22.2995 33.8571 22.1935 33.8369 22.1128C33.8369 21.8807 33.8823 21.4922 33.9731 20.9473C34.064 20.4023 34.1447 20.0744 34.2153 19.9634L34.1245 19.6758C34.2557 18.9997 34.4373 18.263 34.6694 17.4658C34.9116 16.6585 35.1841 15.7856 35.4868 14.8472C35.5877 14.6857 35.6937 14.4839 35.8047 14.2417C35.9157 13.9894 36.0418 13.7069 36.1831 13.394C36.3547 12.8693 36.5817 12.3193 36.8643 11.7441C37.1468 11.1689 37.4647 10.5786 37.8179 9.97314C38.2922 9.17594 38.7109 8.57552 39.0742 8.17188C39.4476 7.76823 39.7806 7.56641 40.0732 7.56641C40.6585 7.56641 41.0571 7.68245 41.269 7.91455C41.491 8.13656 41.6021 8.56038 41.6021 9.18604C41.6021 9.34749 41.5718 9.59977 41.5112 9.94287C41.4608 10.2759 41.4355 10.5282 41.4355 10.6997C41.4355 10.8713 41.38 11.1134 41.269 11.4263C41.158 11.7391 41.1025 12.0267 41.1025 12.2891C41.0924 12.3698 41.0672 12.4505 41.0269 12.5312L41.042 12.7432C41.0016 12.8844 40.9411 13.056 40.8604 13.2578C40.7796 13.4596 40.6737 13.7018 40.5425 13.9844C40.4718 14.2367 40.381 14.5293 40.27 14.8623C40.159 15.1953 40.0278 15.5586 39.8765 15.9521C39.8159 16.0531 39.7352 16.1792 39.6343 16.3306C39.5435 16.4718 39.4425 16.6333 39.3315 16.8149C39.3013 16.9461 39.2508 17.0975 39.1802 17.269C39.1095 17.4406 39.0137 17.6424 38.8926 17.8745C38.832 17.9956 38.7513 18.1268 38.6504 18.2681C38.5495 18.4093 38.4284 18.591 38.2871 18.813C38.2266 18.9139 38.161 19.04 38.0903 19.1914C38.0197 19.3428 37.939 19.5143 37.8481 19.7061C37.7371 19.8776 37.5908 20.0895 37.4092 20.3418C37.2275 20.5941 37.0207 20.8918 36.7886 21.2349C36.4757 21.7899 36.1528 22.3197 35.8198 22.8242C35.8198 23.8031 36.0116 24.5448 36.395 25.0493C36.7886 25.5438 37.3739 25.791 38.1509 25.791C38.2013 25.791 38.3527 25.7557 38.605 25.6851C38.8573 25.6144 39.2054 25.5034 39.6494 25.3521C39.7806 25.2713 39.937 25.1603 40.1187 25.019C40.3003 24.8677 40.5072 24.6911 40.7393 24.4893L41.3296 25.8818C41.0672 26.1139 40.8049 26.3511 40.5425 26.5933C40.2801 26.8354 40.0127 27.0726 39.7402 27.3047C39.4274 27.5671 39.1095 27.7689 38.7866 27.9102C38.4637 28.0413 38.1458 28.1069 37.833 28.1069C37.6715 28.1069 37.4243 28.0918 37.0913 28.0615C36.7583 28.0212 36.506 28.001 36.3345 28.001C35.7694 28.001 35.3001 27.7739 34.9268 27.3198C34.5635 26.8657 34.3062 26.1846 34.1548 25.2764C34.1346 25.1855 34.1043 25.1048 34.064 25.0342C34.0337 24.9635 33.9731 24.8828 33.8823 24.792C33.7511 24.9232 33.5947 25.0796 33.4131 25.2612C33.2415 25.4429 33.0296 25.6497 32.7773 25.8818L32.1719 24.4893ZM39.3921 12.6069L39.2861 12.5464C38.721 13.0913 38.2922 13.606 37.9995 14.0903C37.717 14.5747 37.5757 15.0439 37.5757 15.498C37.5757 15.5687 37.5404 15.6898 37.4697 15.8613C37.4092 16.0228 37.3133 16.2347 37.1821 16.4971C37.0207 16.8099 36.8542 17.153 36.6826 17.5264C36.4909 18.0915 36.3446 18.5506 36.2437 18.9038C36.1427 19.257 36.0923 19.5093 36.0923 19.6606L36.1831 19.7817C36.2739 19.7716 36.3849 19.6808 36.5161 19.5093C36.6473 19.3377 36.7987 19.0854 36.9702 18.7524C37.0509 18.5708 37.167 18.3589 37.3184 18.1167C37.4697 17.8745 37.6413 17.5869 37.833 17.2539C37.9945 17.0319 38.2518 16.4618 38.605 15.5435C38.9582 14.6252 39.1499 14.0399 39.1802 13.7876C39.1903 13.5858 39.2155 13.389 39.2559 13.1973C39.3063 12.9954 39.3517 12.7987 39.3921 12.6069ZM40.709 24.4893C40.7796 24.4186 40.8553 24.3278 40.936 24.2168C41.0067 24.0957 41.0924 23.9645 41.1934 23.8232L42.3589 23.021C42.5002 22.8494 42.7171 22.6325 43.0098 22.3701C43.3024 22.0977 43.6657 21.7697 44.0996 21.3862C44.1501 21.2752 44.2308 21.1491 44.3418 21.0078C44.4629 20.8564 44.6042 20.7101 44.7656 20.5688C44.9069 20.4377 45.0482 20.3166 45.1895 20.2056C45.3307 20.0845 45.4619 19.9684 45.583 19.8574C45.7344 19.7061 45.8757 19.5547 46.0068 19.4033C46.1481 19.252 46.2894 19.1056 46.4307 18.9644C46.5921 18.8231 46.7586 18.7121 46.9302 18.6313C47.1017 18.5506 47.2884 18.5103 47.4902 18.5103C47.7122 18.5103 47.8787 18.5405 47.9897 18.6011C48.1108 18.6515 48.1764 18.7272 48.1865 18.8281C48.0856 19.0602 47.9797 19.2923 47.8687 19.5244L47.9595 19.6606C48.4035 19.4891 48.7516 19.363 49.0039 19.2822C49.2562 19.2015 49.4176 19.1611 49.4883 19.1611C50.2249 19.1611 50.7749 19.3882 51.1382 19.8423C51.5116 20.2863 51.6982 20.9624 51.6982 21.8706C51.6982 22.0422 51.6781 22.244 51.6377 22.4761C51.5973 22.7082 51.5317 22.9604 51.4409 23.2329C51.34 23.5356 51.229 23.7879 51.1079 23.9897C50.9969 24.1916 50.891 24.3379 50.79 24.4287C50.8304 24.5599 50.8758 24.6558 50.9263 24.7163C50.9767 24.7668 51.0423 24.792 51.123 24.792C51.2038 24.792 51.2845 24.7668 51.3652 24.7163C51.4561 24.6659 51.562 24.5902 51.6831 24.4893C51.784 24.7113 51.8799 24.9434 51.9707 25.1855C52.0716 25.4176 52.1725 25.6497 52.2734 25.8818C52.0918 26.0433 51.9152 26.1997 51.7437 26.3511C51.5721 26.5024 51.3905 26.6488 51.1987 26.79C50.9666 26.9818 50.7446 27.123 50.5327 27.2139C50.3309 27.2946 50.1291 27.335 49.9272 27.335C49.6951 27.335 49.5034 27.2795 49.3521 27.1685C49.2007 27.0575 49.0796 26.901 48.9888 26.6992C48.7365 27.0322 48.4287 27.34 48.0654 27.6226C47.7122 27.895 47.3187 28.1221 46.8848 28.3037C46.6325 28.4248 46.4004 28.5207 46.1885 28.5913C45.9867 28.6519 45.8 28.6821 45.6284 28.6821C45.578 28.6821 45.4771 28.7023 45.3257 28.7427C45.1844 28.783 45.0684 28.8032 44.9775 28.8032C44.4023 28.8032 43.8826 28.561 43.4185 28.0767C42.9543 27.5923 42.7222 27.0524 42.7222 26.457C42.7222 26.2148 42.7777 25.897 42.8887 25.5034C42.9997 25.0998 43.0552 24.8626 43.0552 24.792C43.0552 24.7214 43.0299 24.6659 42.9795 24.6255C42.9391 24.575 42.8786 24.5498 42.7979 24.5498C42.7474 24.5498 42.6263 24.6255 42.4346 24.7769C42.2428 24.9282 41.9704 25.1452 41.6172 25.4277C41.5869 25.4681 41.5516 25.5286 41.5112 25.6094C41.4709 25.6901 41.4053 25.7809 41.3145 25.8818C41.2337 25.6497 41.1429 25.4176 41.042 25.1855C40.9411 24.9434 40.8301 24.7113 40.709 24.4893ZM47.9897 21.7192C47.9393 21.7293 47.8636 21.7848 47.7627 21.8857C47.6719 21.9766 47.5811 22.0926 47.4902 22.2339C47.349 22.466 47.1875 22.7183 47.0059 22.9907C46.8949 23.1118 46.7738 23.2077 46.6426 23.2783C46.5215 23.3389 46.3802 23.3843 46.2188 23.4146C46.1178 23.4246 46.0119 23.5256 45.9009 23.7173C45.7899 23.8989 45.6789 24.1663 45.5679 24.5195C45.4569 24.8324 45.3761 25.0998 45.3257 25.3218C45.2752 25.5438 45.25 25.7305 45.25 25.8818C45.25 26.1644 45.3206 26.3763 45.4619 26.5176C45.6032 26.6589 45.8201 26.7295 46.1128 26.7295C46.577 26.7295 47.0008 26.6034 47.3843 26.3511C47.7778 26.0887 48.1462 25.7002 48.4893 25.1855C48.6507 24.9938 48.8021 24.8122 48.9434 24.6406C49.0241 24.5801 49.0897 24.4842 49.1401 24.353C49.1906 24.2118 49.241 24.0402 49.2915 23.8384L49.564 22.9756C49.4731 22.6729 49.3874 22.4357 49.3066 22.2642C49.2259 22.0825 49.1452 21.9715 49.0645 21.9312C49.014 21.9009 48.903 21.8706 48.7314 21.8403C48.5599 21.8 48.3127 21.7596 47.9897 21.7192ZM51.668 24.4893C51.7083 24.4085 51.8042 24.2723 51.9556 24.0806C52.0968 23.8787 52.3037 23.6315 52.5762 23.3389C52.8587 23.0563 53.0908 22.7939 53.2725 22.5518C53.4642 22.2995 53.6004 22.0775 53.6812 21.8857C53.8022 21.6536 53.9435 21.361 54.105 21.0078C54.2765 20.6546 54.4632 20.2459 54.665 19.7817C54.6953 19.7313 54.9123 19.5698 55.3159 19.2974C55.7196 19.0148 55.9718 18.8735 56.0728 18.8735C56.2039 18.8735 56.2998 18.9694 56.3604 19.1611C56.431 19.3428 56.4663 19.6253 56.4663 20.0088C56.4663 20.5739 56.4562 21.0482 56.436 21.4316C56.4259 21.805 56.3906 22.1077 56.3301 22.3398C56.3503 22.3903 56.3704 22.4508 56.3906 22.5215C56.4108 22.5921 56.436 22.6729 56.4663 22.7637C56.4461 22.8646 56.4209 22.9705 56.3906 23.0815C56.3906 24.2824 56.436 25.1805 56.5269 25.7759C56.6177 26.3612 56.7388 26.6538 56.8901 26.6538C57.0819 26.6538 57.3543 26.4015 57.7075 25.897C58.0607 25.3823 58.4896 24.6104 58.9941 23.5811C59.4987 22.582 59.8822 21.7646 60.1445 21.1289C60.4069 20.4831 60.5583 19.9987 60.5986 19.6758C60.6895 19.1107 60.8358 18.6868 61.0376 18.4043C61.2495 18.1117 61.5321 17.9653 61.8853 17.9653C61.9862 17.9653 62.0568 17.9956 62.0972 18.0562C62.1375 18.1066 62.1577 18.1873 62.1577 18.2983C62.1577 18.702 62.1022 19.1157 61.9912 19.5396C61.8903 19.9533 61.7288 20.367 61.5068 20.7808C61.5068 21.0532 61.4412 21.361 61.3101 21.7041C61.189 22.0472 60.9972 22.4256 60.7349 22.8394C60.644 23.1118 60.5734 23.3792 60.5229 23.6416C60.5028 23.7728 60.2707 24.237 59.8267 25.0342C59.3927 25.8314 59.1152 26.2956 58.9941 26.4268C58.9941 26.6689 58.8781 26.9616 58.646 27.3047C58.4139 27.6377 58.0557 28.0212 57.5713 28.4551C57.4704 28.5863 57.3644 28.7124 57.2534 28.8335C57.1424 28.9546 57.0365 29.0757 56.9355 29.1968C56.8245 29.3381 56.6984 29.444 56.5571 29.5146C56.4259 29.5954 56.2695 29.6357 56.0879 29.6357C55.543 29.6357 55.1292 29.4289 54.8467 29.0151C54.5641 28.6014 54.4229 27.9808 54.4229 27.1533C54.4531 27.002 54.4733 26.8708 54.4834 26.7598C54.4329 26.6387 54.3825 26.4823 54.332 26.2905C54.2816 26.0887 54.2463 25.8667 54.2261 25.6245C54.2261 25.3016 54.221 25.0392 54.2109 24.8374C54.2109 24.6356 54.1958 24.4993 54.1655 24.4287L54.2715 24.0806L54.1201 23.9897C54.0495 24.02 53.8628 24.1916 53.5601 24.5044C53.2573 24.8172 52.8285 25.2764 52.2734 25.8818C52.2028 25.6598 52.117 25.4378 52.0161 25.2158C51.9152 24.9938 51.7992 24.7516 51.668 24.4893ZM61.6582 24.4893C61.7793 24.2773 61.9357 24.0654 62.1274 23.8535C62.3192 23.6315 62.5614 23.4045 62.854 23.1724C62.8843 22.9705 62.9146 22.7738 62.9448 22.582C62.9751 22.3802 62.9953 22.1784 63.0054 21.9766C63.0356 21.8353 63.0811 21.6688 63.1416 21.4771C63.2122 21.2853 63.2879 21.0785 63.3687 20.8564C63.4595 20.6344 63.5806 20.3569 63.7319 20.0239C63.8934 19.6909 64.1003 19.3175 64.3525 18.9038C64.5645 18.6717 64.7865 18.4194 65.0186 18.147C65.2507 17.8644 65.4827 17.5819 65.7148 17.2993C65.8258 17.2085 65.9469 17.1227 66.0781 17.042C66.2093 16.9613 66.3405 16.8704 66.4717 16.7695C66.5928 16.7292 66.729 16.6938 66.8804 16.6636C67.0317 16.6333 67.1982 16.6182 67.3799 16.6182C67.6322 16.6182 67.834 16.6434 67.9854 16.6938C68.1468 16.7443 68.278 16.8301 68.3789 16.9512C68.4495 17.0319 68.5151 17.153 68.5757 17.3145C68.6463 17.4759 68.7119 17.6727 68.7725 17.9048C68.8027 18.1066 68.8381 18.3286 68.8784 18.5708C68.8784 18.5103 68.8582 18.5355 68.8179 18.6465C68.7876 18.7575 68.7371 18.9341 68.6665 19.1763L68.5303 19.6606C68.389 20.145 68.0711 20.7051 67.5767 21.3408C67.0822 21.9766 66.4162 22.7031 65.5786 23.5205C65.508 23.5911 65.4474 23.682 65.397 23.793C65.3465 23.8939 65.3213 24.0049 65.3213 24.126C65.3213 24.3379 65.3566 24.5246 65.4272 24.686C65.508 24.8475 65.619 24.9686 65.7603 25.0493C65.841 25.1099 65.9671 25.1704 66.1387 25.231C66.3203 25.2915 66.5322 25.347 66.7744 25.3975C67.168 25.3672 67.5262 25.3016 67.8491 25.2007C68.172 25.0998 68.4596 24.9787 68.7119 24.8374C68.7624 24.8071 68.8431 24.7668 68.9541 24.7163C69.0651 24.6558 69.1761 24.5801 69.2871 24.4893C69.4183 24.7819 69.5343 25.0443 69.6353 25.2764C69.7362 25.5085 69.8169 25.7103 69.8774 25.8818C69.3022 26.4469 68.7775 26.8758 68.3032 27.1685C67.839 27.451 67.4102 27.5923 67.0166 27.5923C66.8551 27.6932 66.6685 27.7689 66.4565 27.8193C66.2547 27.8597 66.0125 27.8799 65.73 27.8799C65.3566 27.8799 65.0236 27.8244 64.731 27.7134C64.4484 27.6024 64.2113 27.4409 64.0195 27.229C63.9186 27.1281 63.8177 26.9818 63.7168 26.79C63.6159 26.5882 63.5099 26.3511 63.3989 26.0786C63.3081 25.8566 63.2223 25.6951 63.1416 25.5942C63.0609 25.4832 62.9701 25.4277 62.8691 25.4277C62.7884 25.4277 62.6976 25.4681 62.5967 25.5488C62.4958 25.6195 62.3848 25.7305 62.2637 25.8818C62.2233 25.7305 62.1527 25.5438 62.0518 25.3218C61.9508 25.0998 61.8197 24.8223 61.6582 24.4893ZM66.502 19.5698C66.2799 19.5698 65.9823 19.8625 65.6089 20.4478C65.2355 21.0229 65.0488 21.4468 65.0488 21.7192C65.0488 21.7798 65.0589 21.8252 65.0791 21.8555C65.1094 21.8757 65.1649 21.8857 65.2456 21.8857C65.3566 21.8857 65.4474 21.8302 65.5181 21.7192C65.5887 21.5981 65.6543 21.4871 65.7148 21.3862C65.8258 21.2853 65.9318 21.1794 66.0327 21.0684C66.1437 20.9473 66.2497 20.8312 66.3506 20.7202C66.4717 20.5789 66.5625 20.4377 66.623 20.2964C66.6836 20.1551 66.7139 20.0138 66.7139 19.8726C66.7139 19.7817 66.6937 19.7111 66.6533 19.6606C66.623 19.6001 66.5726 19.5698 66.502 19.5698ZM69.2871 24.4893C69.3275 24.4186 69.383 24.3429 69.4536 24.2622C69.5142 24.1714 69.5898 24.0654 69.6807 23.9443C69.7816 23.8636 69.9128 23.7476 70.0742 23.5962C70.2357 23.4448 70.4173 23.2682 70.6191 23.0664C70.8008 22.8646 71.0228 22.6174 71.2852 22.3247C71.5475 22.022 71.8654 21.6587 72.2388 21.2349C72.4002 21.0633 72.6021 20.8464 72.8442 20.584C73.0864 20.3115 73.374 19.9886 73.707 19.6152C73.9896 19.2822 74.2923 19.035 74.6152 18.8735C74.9382 18.7121 75.2812 18.6313 75.6445 18.6313C76.0078 18.6313 76.2752 18.7474 76.4468 18.9795C76.6183 19.2015 76.7041 19.5295 76.7041 19.9634C76.7041 20.1955 76.6183 20.6395 76.4468 21.2954C76.2752 21.9513 76.0078 22.8192 75.6445 23.8989C75.5537 24.1007 75.4679 24.2925 75.3872 24.4741C75.3267 24.6053 75.2863 24.7214 75.2661 24.8223C75.2459 24.9232 75.2358 24.9989 75.2358 25.0493C75.2358 25.1099 75.2712 25.1855 75.3418 25.2764C75.3923 25.2461 75.4377 25.2057 75.478 25.1553C75.5285 25.1048 75.584 25.0443 75.6445 24.9736C75.7253 24.8223 75.8464 24.6659 76.0078 24.5044C76.1794 24.3328 76.3812 24.1462 76.6133 23.9443C76.7041 23.7728 76.8201 23.6063 76.9614 23.4448C77.1128 23.2733 77.2793 23.1169 77.4609 22.9756C77.5013 22.9352 77.5518 22.8696 77.6123 22.7788C77.6829 22.688 77.7637 22.5921 77.8545 22.4912C77.9857 22.36 78.1421 22.2238 78.3237 22.0825C78.5054 21.9412 78.7173 21.7949 78.9595 21.6436C79.2319 21.5023 79.4741 21.3913 79.686 21.3105C79.908 21.2298 80.0998 21.1895 80.2612 21.1895C80.5741 21.1895 80.8516 21.2651 81.0938 21.4165C81.3359 21.5679 81.5428 21.805 81.7144 22.1279C81.9162 22.7536 82.1079 23.3338 82.2896 23.8687C82.4006 24.1815 82.5216 24.4136 82.6528 24.5649C82.7941 24.7163 82.9505 24.792 83.1221 24.792C83.2533 24.792 83.3693 24.7668 83.4702 24.7163C83.5812 24.6659 83.6821 24.5902 83.7729 24.4893L84.3784 25.8818C84.2069 26.0231 84.0303 26.1694 83.8486 26.3208C83.667 26.4722 83.4904 26.6185 83.3188 26.7598C83.0868 26.9717 82.8698 27.123 82.668 27.2139C82.4661 27.2946 82.2643 27.335 82.0625 27.335C81.8304 27.335 81.6084 27.2845 81.3965 27.1836C81.1846 27.0827 81.0029 26.9313 80.8516 26.7295C80.7708 26.6488 80.6699 26.5024 80.5488 26.2905C80.4277 26.0685 80.2865 25.7961 80.125 25.4731C79.9938 25.342 79.8424 25.1704 79.6709 24.9585C79.5094 24.7365 79.3177 24.4792 79.0957 24.1865L78.9595 24.1411C78.7677 24.2017 78.576 24.2925 78.3843 24.4136C78.2026 24.5347 78.0059 24.6911 77.7939 24.8828C77.3398 25.2865 77.0119 25.5387 76.8101 25.6396C76.6082 25.7406 76.472 25.8566 76.4014 25.9878C76.2601 26.23 76.0179 26.5428 75.6748 26.9263C75.3317 27.3097 74.9028 27.7638 74.3882 28.2886C74.257 28.4198 74.1258 28.5509 73.9946 28.6821C73.8634 28.8032 73.7323 28.9243 73.6011 29.0454C73.4699 29.1564 73.3185 29.2321 73.147 29.2725C72.9855 29.3229 72.8039 29.3481 72.6021 29.3481C72.1984 29.3481 71.9764 29.2119 71.936 28.9395C71.9058 28.6569 71.8755 28.3743 71.8452 28.0918C71.9966 27.668 72.1681 27.1382 72.3599 26.5024C72.5516 25.8667 72.7736 25.125 73.0259 24.2773C73.0259 24.2269 73.041 24.1613 73.0713 24.0806C73.1117 23.9897 73.1571 23.8737 73.2075 23.7324C73.258 23.6012 73.2933 23.4902 73.3135 23.3994C73.3337 23.2985 73.3438 23.2127 73.3438 23.1421C73.3438 23.0715 73.3185 23.016 73.2681 22.9756C73.2176 22.9352 73.1369 22.915 73.0259 22.915C72.925 22.915 72.7887 22.9756 72.6172 23.0967C72.4557 23.2178 72.259 23.4095 72.0269 23.6719C71.7443 23.9746 71.5173 24.2118 71.3457 24.3833C71.1742 24.5549 71.0581 24.6558 70.9976 24.686C70.8966 24.7567 70.7756 24.8576 70.6343 24.9888C70.5031 25.12 70.3517 25.2663 70.1802 25.4277C70.16 25.4681 70.1297 25.5286 70.0894 25.6094C70.049 25.6901 69.9834 25.7809 69.8926 25.8818C69.8522 25.7305 69.7816 25.5438 69.6807 25.3218C69.5798 25.0998 69.4486 24.8223 69.2871 24.4893ZM83.7578 24.4893L83.8486 24.3833L83.894 24.2319C84.1665 23.8586 84.6458 23.3742 85.332 22.7788C86.0182 22.1733 86.4925 21.6839 86.7549 21.3105C86.8558 21.1491 86.9718 21.033 87.103 20.9624C87.2342 20.8918 87.3654 20.8564 87.4966 20.8564C87.8498 20.8564 88.1475 20.9473 88.3896 21.1289C88.6318 21.3005 88.7933 21.5628 88.874 21.916C88.9447 22.2288 89.0103 22.5467 89.0708 22.8696C89.1313 23.1825 89.1818 23.5003 89.2222 23.8232C89.2928 24.0251 89.3786 24.3328 89.4795 24.7466C89.5804 25.1502 89.6561 25.3823 89.7065 25.4429C89.757 25.5438 89.8327 25.6195 89.9336 25.6699C90.0345 25.7103 90.1606 25.7305 90.312 25.7305C90.4937 25.7305 90.6803 25.7002 90.8721 25.6396C91.0638 25.569 91.2606 25.453 91.4624 25.2915C91.6138 25.1603 91.7702 25.0291 91.9316 24.8979C92.1032 24.7567 92.2697 24.6204 92.4312 24.4893L93.0366 25.8818C92.8752 26.0433 92.6582 26.23 92.3857 26.4419C92.1234 26.6437 91.8055 26.8809 91.4321 27.1533C91.0184 27.4561 90.6652 27.6831 90.3726 27.8345C90.0799 27.9757 89.8579 28.0464 89.7065 28.0464C88.7882 28.0464 88.1929 27.9404 87.9204 27.7285C87.6479 27.5166 87.3452 26.9263 87.0122 25.9575C86.9718 25.8768 86.9113 25.7809 86.8306 25.6699C86.7498 25.5589 86.659 25.4277 86.5581 25.2764C86.437 25.0443 86.3311 24.8727 86.2402 24.7617C86.1494 24.6406 86.0737 24.5801 86.0132 24.5801C85.8517 24.5801 85.6348 24.6911 85.3623 24.9131C85.0898 25.125 84.7568 25.4479 84.3633 25.8818C84.3128 25.7507 84.2523 25.5942 84.1816 25.4126C84.1009 25.231 84.0202 25.019 83.9395 24.7769C83.9193 24.7163 83.894 24.6608 83.8638 24.6104C83.8335 24.5599 83.7982 24.5195 83.7578 24.4893ZM90.085 12.5464C90.3372 12.5464 90.5189 12.5968 90.6299 12.6978C90.751 12.7987 90.8115 12.945 90.8115 13.1367C90.751 13.4193 90.7005 13.6564 90.6602 13.8481C90.5592 14.2114 90.4684 14.5091 90.3877 14.7412C90.3171 14.9733 90.2616 15.1398 90.2212 15.2407C90.1304 15.4627 90.0042 15.6595 89.8428 15.8311C89.6914 15.9925 89.5047 16.1388 89.2827 16.27C89.0506 16.4315 88.8538 16.5475 88.6924 16.6182C88.541 16.6787 88.4351 16.7039 88.3745 16.6938C88.203 16.6737 88.0365 16.6585 87.875 16.6484C87.7236 16.6283 87.5723 16.6182 87.4209 16.6182C87.2897 16.5475 87.1838 16.4113 87.103 16.2095C87.0324 16.0076 86.9971 15.7352 86.9971 15.3921C86.9971 15.0894 87.1787 14.7109 87.542 14.2568C87.9154 13.7926 88.2433 13.5454 88.5259 13.5151C88.6974 13.3032 88.8993 13.061 89.1313 12.7886C89.2323 12.7179 89.3634 12.6624 89.5249 12.6221C89.6864 12.5716 89.873 12.5464 90.085 12.5464ZM92.9004 23.8232L94.2778 22.915C94.3283 22.8646 94.3888 22.799 94.4595 22.7183C94.5301 22.6274 94.6108 22.5013 94.7017 22.3398C94.7723 22.2087 94.8631 22.0977 94.9741 22.0068C95.0952 21.916 95.2314 21.8353 95.3828 21.7646C95.4635 21.6637 95.5796 21.5376 95.731 21.3862C95.8823 21.2349 96.0741 21.0583 96.3062 20.8564C96.4172 20.7959 96.5584 20.7101 96.73 20.5991C96.9015 20.478 97.0882 20.3216 97.29 20.1299C98.2083 19.262 99.0106 18.6112 99.6968 18.1772C100.393 17.7433 100.978 17.5264 101.453 17.5264C101.715 17.5264 101.907 17.5819 102.028 17.6929C102.159 17.8039 102.225 17.9603 102.225 18.1621C102.225 18.374 102.184 18.5607 102.104 18.7222C102.033 18.8836 101.917 19.0199 101.755 19.1309C101.503 19.3125 101.231 19.5143 100.938 19.7363C100.777 19.9482 100.58 20.1753 100.348 20.4175C100.116 20.6496 99.8431 20.8817 99.5303 21.1138C99.4294 21.245 99.3436 21.361 99.2729 21.4619C99.2225 21.5124 99.1266 21.6032 98.9854 21.7344C98.8441 21.8656 98.6574 22.0169 98.4253 22.1885C98.3244 22.4105 98.1024 22.6981 97.7593 23.0513C97.4263 23.4045 96.9772 23.8283 96.4121 24.3228C96.3415 24.3934 96.2153 24.5549 96.0337 24.8071C95.8521 25.0594 95.6149 25.3924 95.3223 25.8062L95.4282 25.9424C95.6502 25.8717 95.8823 25.7507 96.1245 25.5791C96.3667 25.4076 96.6341 25.1805 96.9268 24.8979C97.2699 24.5851 97.5474 24.3328 97.7593 24.1411C97.9813 23.9393 98.1377 23.8081 98.2285 23.7476C98.2992 23.7072 98.3698 23.6668 98.4404 23.6265C98.5111 23.5861 98.5918 23.5356 98.6826 23.4751C99.1468 22.9201 99.5807 22.5114 99.9844 22.249C100.388 21.9766 100.761 21.8403 101.104 21.8403C101.316 21.8403 101.478 21.9261 101.589 22.0977C101.7 22.2591 101.765 22.5063 101.786 22.8394C101.765 23.3439 101.755 23.8283 101.755 24.2925C101.745 24.6154 101.831 24.908 102.013 25.1704C102.204 25.4227 102.452 25.5488 102.754 25.5488C102.845 25.5488 102.931 25.5236 103.012 25.4731C103.103 25.4227 103.193 25.3571 103.284 25.2764C103.355 25.1855 103.42 25.0998 103.481 25.019C103.552 24.9383 103.622 24.8576 103.693 24.7769C103.733 24.7567 103.789 24.7214 103.859 24.6709C103.94 24.6204 104.016 24.5599 104.086 24.4893C104.228 24.792 104.344 25.0594 104.435 25.2915C104.535 25.5135 104.611 25.7103 104.662 25.8818C104.43 26.0938 104.197 26.3158 103.965 26.5479C103.743 26.7699 103.506 26.9818 103.254 27.1836C102.951 27.4157 102.659 27.5923 102.376 27.7134C102.093 27.8244 101.811 27.8799 101.528 27.8799C100.872 27.8799 100.368 27.6932 100.015 27.3198C99.6615 26.9465 99.4546 26.3813 99.394 25.6245C99.394 25.5337 99.3789 25.4429 99.3486 25.3521C99.3285 25.2511 99.278 25.1502 99.1973 25.0493C99.1468 25.0998 99.0913 25.1553 99.0308 25.2158C98.9702 25.2663 98.8996 25.3369 98.8188 25.4277C98.6877 25.5286 98.5212 25.6548 98.3193 25.8062C98.1276 25.9575 97.9006 26.1392 97.6382 26.3511C97.285 26.7144 96.9873 27.012 96.7451 27.2441C96.5029 27.4762 96.3314 27.6427 96.2305 27.7437C96.0286 27.9152 95.7915 28.0868 95.519 28.2583C95.2567 28.4299 94.959 28.6064 94.626 28.7881C94.4141 28.8991 94.2324 28.9849 94.0811 29.0454C93.9297 29.116 93.8187 29.1514 93.748 29.1514C93.2637 29.1514 92.9054 29.0353 92.6733 28.8032C92.4412 28.561 92.3252 28.1927 92.3252 27.6982C92.3252 27.4258 92.3857 27.1685 92.5068 26.9263C92.6178 26.674 92.7894 26.4318 93.0215 26.1997C93.0417 26.0685 93.0518 25.9626 93.0518 25.8818C93.0518 25.8314 93.0366 25.7809 93.0063 25.7305C92.9862 25.6699 92.9559 25.6043 92.9155 25.5337C92.855 25.3924 92.7894 25.236 92.7188 25.0645C92.638 24.8828 92.5522 24.6911 92.4614 24.4893C92.5018 24.4489 92.5623 24.3732 92.6431 24.2622C92.7137 24.1411 92.7995 23.9948 92.9004 23.8232Z" fill="#BBBBBB"/>
<path d="M61.8847 48.0064C67.5783 72.4769 46.636 97.0435 29.5259 100.751C15.9545 103.796 0.197487 104.402 -11.5185 95.6054C-17.7941 90.8781 -22.5502 82.3061 -20.1747 74.3338C-16.4884 61.9455 -6.28742 66.4476 -3.81135 76.9718C-2.0216 84.3689 -5.84208 94.9512 -11.9998 99.5612C-25.3046 109.475 -42.7097 113.237 -58.8517 110.151" stroke="#BBBBBB" stroke-linecap="round" stroke-linejoin="round" stroke-dasharray="4.01 4.01"/>
</svg>
