<svg width="246" height="105" viewBox="0 0 246 105" fill="none" xmlns="http://www.w3.org/2000/svg">
<path d="M2.68848 58.9995C2.6582 58.7977 2.62288 58.5858 2.58252 58.3638C2.58252 58.4546 2.59766 58.384 2.62793 58.1519C2.6582 57.9198 2.69857 57.5212 2.74902 56.9561C2.82975 56.8451 2.88525 56.7492 2.91553 56.6685C2.95589 56.5776 2.99121 56.4969 3.02148 56.4263C2.93066 56.3153 2.86003 56.2244 2.80957 56.1538C2.76921 56.0731 2.74902 56.0075 2.74902 55.957C2.82975 55.3415 2.90544 54.7562 2.97607 54.2012C2.98617 54.0498 3.07194 53.8783 3.2334 53.6865C3.40495 53.4948 3.63704 53.2879 3.92969 53.0659C4.16178 52.8742 4.38883 52.7127 4.61084 52.5815C4.83285 52.4504 5.04476 52.3444 5.24658 52.2637C5.51904 52.1729 5.6805 52.0972 5.73096 52.0366C5.78141 51.9761 5.83691 51.9458 5.89746 51.9458C6.05892 51.9458 6.18001 52.0265 6.26074 52.188C6.35156 52.3494 6.39697 52.5916 6.39697 52.9146C6.39697 53.0861 6.35156 53.3232 6.26074 53.626C6.18001 53.9287 6.13965 54.1507 6.13965 54.292C6.13965 54.3525 6.14469 54.5846 6.15479 54.9883C6.17497 55.3919 6.2002 55.9722 6.23047 56.729C6.24056 57.2739 6.31624 57.8542 6.45752 58.4697C6.60889 59.0853 6.80062 59.7261 7.03271 60.3921C7.34554 61.2599 7.68359 61.9108 8.04688 62.3447C8.41016 62.7686 8.80876 62.9805 9.24268 62.9805C9.58577 62.9805 10.0399 62.7585 10.605 62.3145C11.1701 61.8704 11.8361 61.2044 12.603 60.3164C13.1883 59.6302 13.708 58.9894 14.1621 58.394C14.6263 57.7987 14.9997 57.2537 15.2822 56.7593C15.5446 56.3153 15.8524 55.9167 16.2056 55.5635C16.5588 55.2103 16.9624 54.8874 17.4165 54.5947C17.5578 54.514 17.6738 54.4484 17.7646 54.3979C17.8555 54.3475 17.9261 54.3223 17.9766 54.3223C18.1582 54.3223 18.2944 54.4585 18.3853 54.731C18.4862 55.0034 18.5366 55.4071 18.5366 55.9419C18.4761 56.4364 18.4256 56.9258 18.3853 57.4102C18.2944 58.167 18.1582 58.9541 17.9766 59.7715C17.805 60.5889 17.578 61.4365 17.2954 62.3145C17.1541 62.7585 17.033 63.147 16.9321 63.48C16.8312 63.813 16.7606 64.0955 16.7202 64.3276C16.7 64.4588 16.6698 64.6253 16.6294 64.8271C16.5991 65.0189 16.5638 65.2459 16.5234 65.5083C16.4225 65.7606 16.3115 66.0129 16.1904 66.2651C16.0895 66.467 16.0037 66.7091 15.9331 66.9917C15.8726 67.2743 15.8171 67.6022 15.7666 67.9756C15.7666 68.0462 15.7616 68.137 15.7515 68.248C15.7414 68.359 15.7313 68.4751 15.7212 68.5962C15.4891 69.6255 15.252 70.6245 15.0098 71.5933C14.9896 71.6841 14.9442 71.8001 14.8735 71.9414C14.7424 71.9818 14.591 72.0675 14.4194 72.1987C14.258 72.3299 14.0864 72.5116 13.9048 72.7437C13.7231 72.9455 13.5718 73.0968 13.4507 73.1978C13.3296 73.2886 13.2388 73.334 13.1782 73.334C13.0975 73.334 13.0319 73.3088 12.9814 73.2583C12.931 73.2078 12.9058 73.1221 12.9058 73.001C12.9159 72.9202 12.931 72.8547 12.9512 72.8042C13.0924 72.4611 13.2135 71.9666 13.3145 71.3208C13.4255 70.675 13.5264 69.8778 13.6172 68.9292C13.6273 68.7274 13.708 68.1825 13.8594 67.2944C14.0107 66.4064 14.2327 65.1753 14.5254 63.6011C14.5658 63.3488 14.6162 63.041 14.6768 62.6777C14.7474 62.3044 14.8332 61.8805 14.9341 61.4062C15.0047 61.1641 15.0602 60.9572 15.1006 60.7856C15.151 60.604 15.1763 60.4728 15.1763 60.3921C15.1763 60.2912 15.1561 60.2205 15.1157 60.1802C15.0854 60.1297 15.035 60.1045 14.9644 60.1045C14.9038 60.1045 14.7928 60.1852 14.6313 60.3467C14.4699 60.498 14.2681 60.7301 14.0259 61.043C13.8846 61.2145 13.7383 61.3962 13.5869 61.5879C13.4456 61.7796 13.2943 61.9663 13.1328 62.1479C12.8604 62.4305 12.6081 62.6979 12.376 62.9502L11.2559 64.0703C11.1549 64.1309 11.0288 64.2065 10.8774 64.2974C10.7362 64.3882 10.5646 64.4941 10.3628 64.6152C10.1711 64.918 9.86328 65.1803 9.43945 65.4023C9.02572 65.6143 8.64225 65.7202 8.28906 65.7202C7.86523 65.7202 7.45654 65.589 7.06299 65.3267C6.67952 65.0542 6.30615 64.6405 5.94287 64.0854C5.78141 63.813 5.61995 63.5405 5.4585 63.2681C5.30713 62.9956 5.14062 62.7231 4.95898 62.4507L4.8833 62.4658C4.83285 62.5264 4.73698 62.9351 4.5957 63.6919C4.46452 64.4487 4.29297 65.5588 4.08105 67.022C3.84896 68.5256 3.67236 69.7062 3.55127 70.564C3.43018 71.4217 3.36963 71.9767 3.36963 72.229C3.34945 72.5721 3.28385 72.8395 3.17285 73.0312C3.07194 73.2129 2.91048 73.3188 2.68848 73.3491C2.57747 73.3592 2.42106 73.3895 2.21924 73.4399C2.01742 73.4803 1.77523 73.5358 1.49268 73.6064C1.44222 73.5964 1.39681 73.5812 1.35645 73.561C1.31608 73.5308 1.2959 73.4904 1.2959 73.4399L1.38672 72.8799L1.23535 72.3047C1.2959 71.9919 1.35645 71.6891 1.41699 71.3965C1.45736 70.791 1.49268 70.2209 1.52295 69.686C1.53304 69.575 1.56836 69.3883 1.62891 69.126C1.69954 68.8636 1.73486 68.6668 1.73486 68.5356C1.73486 68.465 1.71973 68.3641 1.68945 68.2329C1.65918 68.0916 1.64404 67.9857 1.64404 67.915C1.64404 67.36 1.72982 66.5376 1.90137 65.4478C2.08301 64.3579 2.17383 63.5304 2.17383 62.9653C2.14355 62.7332 2.10824 62.5011 2.06787 62.269C2.11833 61.9058 2.19906 61.4517 2.31006 60.9067C2.42106 60.3618 2.5472 59.7261 2.68848 58.9995ZM18.1885 69.4893C18.2591 69.4186 18.3348 69.3278 18.4155 69.2168C18.4862 69.0957 18.5719 68.9645 18.6729 68.8232L19.8384 68.021C19.9797 67.8494 20.1966 67.6325 20.4893 67.3701C20.7819 67.0977 21.1452 66.7697 21.5791 66.3862C21.6296 66.2752 21.7103 66.1491 21.8213 66.0078C21.9424 65.8564 22.0837 65.7101 22.2451 65.5688C22.3864 65.4377 22.5277 65.3166 22.6689 65.2056C22.8102 65.0845 22.9414 64.9684 23.0625 64.8574C23.2139 64.7061 23.3551 64.5547 23.4863 64.4033C23.6276 64.252 23.7689 64.1056 23.9102 63.9644C24.0716 63.8231 24.2381 63.7121 24.4097 63.6313C24.5812 63.5506 24.7679 63.5103 24.9697 63.5103C25.1917 63.5103 25.3582 63.5405 25.4692 63.6011C25.5903 63.6515 25.6559 63.7272 25.666 63.8281C25.5651 64.0602 25.4591 64.2923 25.3481 64.5244L25.439 64.6606C25.883 64.4891 26.2311 64.363 26.4834 64.2822C26.7357 64.2015 26.8971 64.1611 26.9678 64.1611C27.7044 64.1611 28.2544 64.3882 28.6177 64.8423C28.991 65.2863 29.1777 65.9624 29.1777 66.8706C29.1777 67.0422 29.1576 67.244 29.1172 67.4761C29.0768 67.7082 29.0112 67.9604 28.9204 68.2329C28.8195 68.5356 28.7085 68.7879 28.5874 68.9897C28.4764 69.1916 28.3704 69.3379 28.2695 69.4287C28.3099 69.5599 28.3553 69.6558 28.4058 69.7163C28.4562 69.7668 28.5218 69.792 28.6025 69.792C28.6833 69.792 28.764 69.7668 28.8447 69.7163C28.9355 69.6659 29.0415 69.5902 29.1626 69.4893C29.2635 69.7113 29.3594 69.9434 29.4502 70.1855C29.5511 70.4176 29.652 70.6497 29.7529 70.8818C29.5713 71.0433 29.3947 71.1997 29.2231 71.3511C29.0516 71.5024 28.87 71.6488 28.6782 71.79C28.4461 71.9818 28.2241 72.123 28.0122 72.2139C27.8104 72.2946 27.6086 72.335 27.4067 72.335C27.1746 72.335 26.9829 72.2795 26.8315 72.1685C26.6802 72.0575 26.5591 71.901 26.4683 71.6992C26.216 72.0322 25.9082 72.34 25.5449 72.6226C25.1917 72.895 24.7982 73.1221 24.3643 73.3037C24.112 73.4248 23.8799 73.5207 23.668 73.5913C23.4661 73.6519 23.2795 73.6821 23.1079 73.6821C23.0575 73.6821 22.9565 73.7023 22.8052 73.7427C22.6639 73.783 22.5479 73.8032 22.457 73.8032C21.8818 73.8032 21.3621 73.561 20.8979 73.0767C20.4338 72.5923 20.2017 72.0524 20.2017 71.457C20.2017 71.2148 20.2572 70.897 20.3682 70.5034C20.4792 70.0998 20.5347 69.8626 20.5347 69.792C20.5347 69.7214 20.5094 69.6659 20.459 69.6255C20.4186 69.575 20.3581 69.5498 20.2773 69.5498C20.2269 69.5498 20.1058 69.6255 19.9141 69.7769C19.7223 69.9282 19.4499 70.1452 19.0967 70.4277C19.0664 70.4681 19.0311 70.5286 18.9907 70.6094C18.9504 70.6901 18.8848 70.7809 18.7939 70.8818C18.7132 70.6497 18.6224 70.4176 18.5215 70.1855C18.4206 69.9434 18.3096 69.7113 18.1885 69.4893ZM25.4692 66.7192C25.4188 66.7293 25.3431 66.7848 25.2422 66.8857C25.1514 66.9766 25.0605 67.0926 24.9697 67.2339C24.8285 67.466 24.667 67.7183 24.4854 67.9907C24.3743 68.1118 24.2533 68.2077 24.1221 68.2783C24.001 68.3389 23.8597 68.3843 23.6982 68.4146C23.5973 68.4246 23.4914 68.5256 23.3804 68.7173C23.2694 68.8989 23.1584 69.1663 23.0474 69.5195C22.9364 69.8324 22.8556 70.0998 22.8052 70.3218C22.7547 70.5438 22.7295 70.7305 22.7295 70.8818C22.7295 71.1644 22.8001 71.3763 22.9414 71.5176C23.0827 71.6589 23.2996 71.7295 23.5923 71.7295C24.0565 71.7295 24.4803 71.6034 24.8638 71.3511C25.2573 71.0887 25.6257 70.7002 25.9688 70.1855C26.1302 69.9938 26.2816 69.8122 26.4229 69.6406C26.5036 69.5801 26.5692 69.4842 26.6196 69.353C26.6701 69.2118 26.7205 69.0402 26.771 68.8384L27.0435 67.9756C26.9526 67.6729 26.8669 67.4357 26.7861 67.2642C26.7054 67.0825 26.6247 66.9715 26.5439 66.9312C26.4935 66.9009 26.3825 66.8706 26.2109 66.8403C26.0394 66.8 25.7922 66.7596 25.4692 66.7192ZM29.1475 69.4893C29.1878 69.4186 29.2433 69.3429 29.314 69.2622C29.3745 69.1714 29.4502 69.0654 29.541 68.9443C29.6419 68.8636 29.7731 68.7476 29.9346 68.5962C30.096 68.4448 30.2777 68.2682 30.4795 68.0664C30.6611 67.8646 30.8831 67.6174 31.1455 67.3247C31.4079 67.022 31.7257 66.6587 32.0991 66.2349C32.2606 66.0633 32.4624 65.8464 32.7046 65.584C32.9468 65.3115 33.2344 64.9886 33.5674 64.6152C33.8499 64.2822 34.1527 64.035 34.4756 63.8735C34.7985 63.7121 35.1416 63.6313 35.5049 63.6313C35.8682 63.6313 36.1356 63.7474 36.3071 63.9795C36.4787 64.2015 36.5645 64.5295 36.5645 64.9634C36.5645 65.1955 36.4787 65.6395 36.3071 66.2954C36.1356 66.9513 35.8682 67.8192 35.5049 68.8989C35.4141 69.1007 35.3283 69.2925 35.2476 69.4741C35.187 69.6053 35.1466 69.7214 35.1265 69.8223C35.1063 69.9232 35.0962 69.9989 35.0962 70.0493C35.0962 70.1099 35.1315 70.1855 35.2021 70.2764C35.2526 70.2461 35.298 70.2057 35.3384 70.1553C35.3888 70.1048 35.4443 70.0443 35.5049 69.9736C35.5856 69.8223 35.7067 69.6659 35.8682 69.5044C36.0397 69.3328 36.2415 69.1462 36.4736 68.9443C36.5645 68.7728 36.6805 68.6063 36.8218 68.4448C36.9731 68.2733 37.1396 68.1169 37.3213 67.9756C37.3617 67.9352 37.4121 67.8696 37.4727 67.7788C37.5433 67.688 37.624 67.5921 37.7148 67.4912C37.846 67.36 38.0024 67.2238 38.1841 67.0825C38.3657 66.9412 38.5776 66.7949 38.8198 66.6436C39.0923 66.5023 39.3345 66.3913 39.5464 66.3105C39.7684 66.2298 39.9601 66.1895 40.1216 66.1895C40.4344 66.1895 40.7119 66.2651 40.9541 66.4165C41.1963 66.5679 41.4032 66.805 41.5747 67.1279C41.7765 67.7536 41.9683 68.3338 42.1499 68.8687C42.2609 69.1815 42.382 69.4136 42.5132 69.5649C42.6545 69.7163 42.8109 69.792 42.9824 69.792C43.1136 69.792 43.2297 69.7668 43.3306 69.7163C43.4416 69.6659 43.5425 69.5902 43.6333 69.4893L44.2388 70.8818C44.0672 71.0231 43.8906 71.1694 43.709 71.3208C43.5273 71.4722 43.3507 71.6185 43.1792 71.7598C42.9471 71.9717 42.7301 72.123 42.5283 72.2139C42.3265 72.2946 42.1247 72.335 41.9229 72.335C41.6908 72.335 41.4688 72.2845 41.2568 72.1836C41.0449 72.0827 40.8633 71.9313 40.7119 71.7295C40.6312 71.6488 40.5303 71.5024 40.4092 71.2905C40.2881 71.0685 40.1468 70.7961 39.9854 70.4731C39.8542 70.342 39.7028 70.1704 39.5312 69.9585C39.3698 69.7365 39.1781 69.4792 38.9561 69.1865L38.8198 69.1411C38.6281 69.2017 38.4364 69.2925 38.2446 69.4136C38.063 69.5347 37.8662 69.6911 37.6543 69.8828C37.2002 70.2865 36.8722 70.5387 36.6704 70.6396C36.4686 70.7406 36.3324 70.8566 36.2617 70.9878C36.1204 71.23 35.8783 71.5428 35.5352 71.9263C35.1921 72.3097 34.7632 72.7638 34.2485 73.2886C34.1174 73.4198 33.9862 73.5509 33.855 73.6821C33.7238 73.8032 33.5926 73.9243 33.4614 74.0454C33.3302 74.1564 33.1789 74.2321 33.0073 74.2725C32.8459 74.3229 32.6642 74.3481 32.4624 74.3481C32.0588 74.3481 31.8368 74.2119 31.7964 73.9395C31.7661 73.6569 31.7358 73.3743 31.7056 73.0918C31.8569 72.668 32.0285 72.1382 32.2202 71.5024C32.4119 70.8667 32.634 70.125 32.8862 69.2773C32.8862 69.2269 32.9014 69.1613 32.9316 69.0806C32.972 68.9897 33.0174 68.8737 33.0679 68.7324C33.1183 68.6012 33.1536 68.4902 33.1738 68.3994C33.194 68.2985 33.2041 68.2127 33.2041 68.1421C33.2041 68.0715 33.1789 68.016 33.1284 67.9756C33.078 67.9352 32.9972 67.915 32.8862 67.915C32.7853 67.915 32.6491 67.9756 32.4775 68.0967C32.3161 68.2178 32.1193 68.4095 31.8872 68.6719C31.6047 68.9746 31.3776 69.2118 31.2061 69.3833C31.0345 69.5549 30.9185 69.6558 30.8579 69.686C30.757 69.7567 30.6359 69.8576 30.4946 69.9888C30.3634 70.12 30.2121 70.2663 30.0405 70.4277C30.0203 70.4681 29.9901 70.5286 29.9497 70.6094C29.9093 70.6901 29.8438 70.7809 29.7529 70.8818C29.7126 70.7305 29.6419 70.5438 29.541 70.3218C29.4401 70.0998 29.3089 69.8223 29.1475 69.4893ZM43.6182 69.4893L43.6787 69.3682C43.7393 69.2874 43.82 69.1865 43.9209 69.0654C44.0117 68.9443 44.1227 68.8031 44.2539 68.6416C44.9704 67.9756 45.6667 67.1834 46.3428 66.2651C47.029 65.3368 47.7051 64.2721 48.3711 63.0713C48.4518 62.9603 48.5426 62.814 48.6436 62.6323C48.7445 62.4507 48.8555 62.2236 48.9766 61.9512C48.9766 61.8906 48.9614 61.8452 48.9312 61.8149C48.9009 61.7847 48.8504 61.7695 48.7798 61.7695C48.7192 61.7695 48.6183 61.7897 48.4771 61.8301C48.3459 61.8604 48.245 61.8755 48.1743 61.8755H46.2822C46.2015 61.8755 46.0653 61.8704 45.8735 61.8604C45.6919 61.8503 45.5607 61.8452 45.48 61.8452C45.3791 61.7948 45.2832 61.7544 45.1924 61.7241C45.1117 61.6838 45.0309 61.6434 44.9502 61.603C44.8291 61.5627 44.7332 61.5122 44.6626 61.4517C44.6021 61.381 44.5718 61.3003 44.5718 61.2095C44.5718 60.5636 44.6374 60.0692 44.7686 59.7261C44.9098 59.383 45.1217 59.2114 45.4043 59.2114C45.6868 59.2114 45.9492 59.2266 46.1914 59.2568C46.4437 59.277 46.6657 59.3073 46.8574 59.3477C47.0088 59.3174 47.1501 59.2871 47.2812 59.2568C47.5537 59.2568 47.7858 59.2669 47.9775 59.2871C48.1693 59.3073 48.3156 59.3325 48.4165 59.3628C48.5477 59.3325 48.6738 59.3073 48.7949 59.2871C48.9261 59.2568 49.0674 59.2266 49.2188 59.1963L49.7183 59.3477C50.0715 59.3073 50.4448 58.8128 50.8384 57.8643C51.242 56.9157 51.6709 56.4414 52.125 56.4414C52.3672 56.4414 52.5539 56.5171 52.6851 56.6685C52.8162 56.8198 52.8818 57.0418 52.8818 57.3345C52.8818 57.5666 52.8112 57.8743 52.6699 58.2578C52.5387 58.6312 52.4631 58.9137 52.4429 59.1055C52.4631 59.1458 52.4883 59.1912 52.5186 59.2417C52.5589 59.2821 52.6144 59.3325 52.6851 59.3931C52.7456 59.4334 52.786 59.5041 52.8062 59.605C52.8364 59.6958 52.8516 59.8118 52.8516 59.9531C52.8516 60.5586 52.8213 61.0278 52.7607 61.3608C52.7103 61.6838 52.6245 61.8503 52.5034 61.8604L51.4741 62.0723C51.4539 62.1732 51.4287 62.2993 51.3984 62.4507C51.3682 62.592 51.3278 62.7585 51.2773 62.9502C51.1058 63.4548 50.9141 64.0955 50.7021 64.8726C50.4902 65.6496 50.2531 66.5679 49.9907 67.6274C49.8293 68.4751 49.7031 69.1613 49.6123 69.686C49.5316 70.2108 49.4912 70.564 49.4912 70.7456C49.4912 70.9071 49.5164 71.0282 49.5669 71.1089C49.6174 71.1896 49.693 71.23 49.7939 71.23C49.8545 71.23 50.0715 71.0837 50.4448 70.791C50.8283 70.4984 51.3581 70.0645 52.0342 69.4893L52.6245 70.8818C52.5236 70.9928 52.3823 71.124 52.2007 71.2754C52.019 71.4268 51.8021 71.5882 51.5498 71.7598C51.4489 71.8708 51.3228 71.9969 51.1714 72.1382C51.02 72.2694 50.8535 72.4258 50.6719 72.6074C50.4902 72.8092 50.3086 73.0111 50.127 73.2129C49.9554 73.4147 49.7788 73.6115 49.5972 73.8032C49.355 74.0656 49.1178 74.2523 48.8857 74.3633C48.6536 74.4844 48.4367 74.5449 48.2349 74.5449C47.7909 74.5449 47.4578 74.4137 47.2358 74.1514C47.0239 73.889 46.918 73.4904 46.918 72.9556C46.918 72.3703 46.9382 71.8657 46.9785 71.4419C47.0189 71.008 47.0845 70.6598 47.1753 70.3975C47.2157 70.3167 47.2459 70.2461 47.2661 70.1855C47.2661 70.0846 47.2812 69.9484 47.3115 69.7769C47.3418 69.6053 47.3771 69.4035 47.4175 69.1714C47.478 68.7778 47.5436 68.3843 47.6143 67.9907C47.7253 67.7485 47.8413 67.4912 47.9624 67.2188C47.9624 67.1683 47.922 67.1229 47.8413 67.0825L47.6899 67.1733C47.5386 67.4155 47.3418 67.6729 47.0996 67.9453C46.8574 68.2077 46.5698 68.4852 46.2368 68.7778C45.7222 69.2723 45.1974 69.7718 44.6626 70.2764C44.6323 70.3268 44.5768 70.4025 44.4961 70.5034C44.4154 70.6043 44.3245 70.7305 44.2236 70.8818C44.1732 70.7607 44.1126 70.6094 44.042 70.4277C43.9613 70.236 43.8805 70.019 43.7998 69.7769C43.7796 69.7163 43.7544 69.6608 43.7241 69.6104C43.6938 69.5599 43.6585 69.5195 43.6182 69.4893ZM52.0039 69.4893C52.125 69.2773 52.2814 69.0654 52.4731 68.8535C52.6649 68.6315 52.9071 68.4045 53.1997 68.1724C53.23 67.9705 53.2603 67.7738 53.2905 67.582C53.3208 67.3802 53.341 67.1784 53.3511 66.9766C53.3813 66.8353 53.4268 66.6688 53.4873 66.4771C53.5579 66.2853 53.6336 66.0785 53.7144 65.8564C53.8052 65.6344 53.9263 65.3569 54.0776 65.0239C54.2391 64.6909 54.446 64.3175 54.6982 63.9038C54.9102 63.6717 55.1322 63.4194 55.3643 63.147C55.5964 62.8644 55.8285 62.5819 56.0605 62.2993C56.1715 62.2085 56.2926 62.1227 56.4238 62.042C56.555 61.9613 56.6862 61.8704 56.8174 61.7695C56.9385 61.7292 57.0747 61.6938 57.2261 61.6636C57.3774 61.6333 57.5439 61.6182 57.7256 61.6182C57.9779 61.6182 58.1797 61.6434 58.3311 61.6938C58.4925 61.7443 58.6237 61.8301 58.7246 61.9512C58.7952 62.0319 58.8608 62.153 58.9214 62.3145C58.992 62.4759 59.0576 62.6727 59.1182 62.9048C59.1484 63.1066 59.1838 63.3286 59.2241 63.5708C59.2241 63.5103 59.2039 63.5355 59.1636 63.6465C59.1333 63.7575 59.0828 63.9341 59.0122 64.1763L58.876 64.6606C58.7347 65.145 58.4168 65.7051 57.9224 66.3408C57.4279 66.9766 56.7619 67.7031 55.9243 68.5205C55.8537 68.5911 55.7931 68.682 55.7427 68.793C55.6922 68.8939 55.667 69.0049 55.667 69.126C55.667 69.3379 55.7023 69.5246 55.7729 69.686C55.8537 69.8475 55.9647 69.9686 56.106 70.0493C56.1867 70.1099 56.3128 70.1704 56.4844 70.231C56.666 70.2915 56.8779 70.347 57.1201 70.3975C57.5137 70.3672 57.8719 70.3016 58.1948 70.2007C58.5177 70.0998 58.8053 69.9787 59.0576 69.8374C59.1081 69.8071 59.1888 69.7668 59.2998 69.7163C59.4108 69.6558 59.5218 69.5801 59.6328 69.4893C59.764 69.7819 59.88 70.0443 59.981 70.2764C60.0819 70.5085 60.1626 70.7103 60.2231 70.8818C59.6479 71.4469 59.1232 71.8758 58.6489 72.1685C58.1847 72.451 57.7559 72.5923 57.3623 72.5923C57.2008 72.6932 57.0142 72.7689 56.8022 72.8193C56.6004 72.8597 56.3582 72.8799 56.0757 72.8799C55.7023 72.8799 55.3693 72.8244 55.0767 72.7134C54.7941 72.6024 54.557 72.4409 54.3652 72.229C54.2643 72.1281 54.1634 71.9818 54.0625 71.79C53.9616 71.5882 53.8556 71.3511 53.7446 71.0786C53.6538 70.8566 53.568 70.6951 53.4873 70.5942C53.4066 70.4832 53.3158 70.4277 53.2148 70.4277C53.1341 70.4277 53.0433 70.4681 52.9424 70.5488C52.8415 70.6195 52.7305 70.7305 52.6094 70.8818C52.569 70.7305 52.4984 70.5438 52.3975 70.3218C52.2965 70.0998 52.1654 69.8223 52.0039 69.4893ZM56.8477 64.5698C56.6257 64.5698 56.328 64.8625 55.9546 65.4478C55.5812 66.0229 55.3945 66.4468 55.3945 66.7192C55.3945 66.7798 55.4046 66.8252 55.4248 66.8555C55.4551 66.8757 55.5106 66.8857 55.5913 66.8857C55.7023 66.8857 55.7931 66.8302 55.8638 66.7192C55.9344 66.5981 56 66.4871 56.0605 66.3862C56.1715 66.2853 56.2775 66.1794 56.3784 66.0684C56.4894 65.9473 56.5954 65.8312 56.6963 65.7202C56.8174 65.5789 56.9082 65.4377 56.9688 65.2964C57.0293 65.1551 57.0596 65.0138 57.0596 64.8726C57.0596 64.7817 57.0394 64.7111 56.999 64.6606C56.9688 64.6001 56.9183 64.5698 56.8477 64.5698ZM59.6328 69.4893C59.6732 69.4186 59.7287 69.3429 59.7993 69.2622C59.8599 69.1714 59.9355 69.0654 60.0264 68.9443C60.1273 68.8636 60.2585 68.7476 60.4199 68.5962C60.5814 68.4448 60.763 68.2682 60.9648 68.0664C61.1465 67.8646 61.3685 67.6174 61.6309 67.3247C61.8932 67.022 62.2111 66.6587 62.5845 66.2349C62.7459 66.0633 62.9478 65.8464 63.1899 65.584C63.4321 65.3115 63.7197 64.9886 64.0527 64.6152C64.3353 64.2822 64.638 64.035 64.9609 63.8735C65.2839 63.7121 65.627 63.6313 65.9902 63.6313C66.3535 63.6313 66.6209 63.7474 66.7925 63.9795C66.964 64.2015 67.0498 64.5295 67.0498 64.9634C67.0498 65.1955 66.964 65.6395 66.7925 66.2954C66.6209 66.9513 66.3535 67.8192 65.9902 68.8989C65.8994 69.1007 65.8136 69.2925 65.7329 69.4741C65.6724 69.6053 65.632 69.7214 65.6118 69.8223C65.5916 69.9232 65.5815 69.9989 65.5815 70.0493C65.5815 70.1099 65.6169 70.1855 65.6875 70.2764C65.738 70.2461 65.7834 70.2057 65.8237 70.1553C65.8742 70.1048 65.9297 70.0443 65.9902 69.9736C66.071 69.8223 66.1921 69.6659 66.3535 69.5044C66.5251 69.3328 66.7269 69.1462 66.959 68.9443C67.0498 68.7728 67.1659 68.6063 67.3071 68.4448C67.4585 68.2733 67.625 68.1169 67.8066 67.9756C67.847 67.9352 67.8975 67.8696 67.958 67.7788C68.0286 67.688 68.1094 67.5921 68.2002 67.4912C68.3314 67.36 68.4878 67.2238 68.6694 67.0825C68.8511 66.9412 69.063 66.7949 69.3052 66.6436C69.5776 66.5023 69.8198 66.3913 70.0317 66.3105C70.2537 66.2298 70.4455 66.1895 70.6069 66.1895C70.9198 66.1895 71.1973 66.2651 71.4395 66.4165C71.6816 66.5679 71.8885 66.805 72.0601 67.1279C72.2619 67.7536 72.4536 68.3338 72.6353 68.8687C72.7463 69.1815 72.8674 69.4136 72.9985 69.5649C73.1398 69.7163 73.2962 69.792 73.4678 69.792C73.599 69.792 73.715 69.7668 73.8159 69.7163C73.9269 69.6659 74.0278 69.5902 74.1187 69.4893L74.7241 70.8818C74.5526 71.0231 74.376 71.1694 74.1943 71.3208C74.0127 71.4722 73.8361 71.6185 73.6646 71.7598C73.4325 71.9717 73.2155 72.123 73.0137 72.2139C72.8118 72.2946 72.61 72.335 72.4082 72.335C72.1761 72.335 71.9541 72.2845 71.7422 72.1836C71.5303 72.0827 71.3486 71.9313 71.1973 71.7295C71.1165 71.6488 71.0156 71.5024 70.8945 71.2905C70.7734 71.0685 70.6322 70.7961 70.4707 70.4731C70.3395 70.342 70.1882 70.1704 70.0166 69.9585C69.8551 69.7365 69.6634 69.4792 69.4414 69.1865L69.3052 69.1411C69.1134 69.2017 68.9217 69.2925 68.73 69.4136C68.5483 69.5347 68.3516 69.6911 68.1396 69.8828C67.6855 70.2865 67.3576 70.5387 67.1558 70.6396C66.9539 70.7406 66.8177 70.8566 66.7471 70.9878C66.6058 71.23 66.3636 71.5428 66.0205 71.9263C65.6774 72.3097 65.2485 72.7638 64.7339 73.2886C64.6027 73.4198 64.4715 73.5509 64.3403 73.6821C64.2091 73.8032 64.078 73.9243 63.9468 74.0454C63.8156 74.1564 63.6642 74.2321 63.4927 74.2725C63.3312 74.3229 63.1496 74.3481 62.9478 74.3481C62.5441 74.3481 62.3221 74.2119 62.2817 73.9395C62.2515 73.6569 62.2212 73.3743 62.1909 73.0918C62.3423 72.668 62.5138 72.1382 62.7056 71.5024C62.8973 70.8667 63.1193 70.125 63.3716 69.2773C63.3716 69.2269 63.3867 69.1613 63.417 69.0806C63.4574 68.9897 63.5028 68.8737 63.5532 68.7324C63.6037 68.6012 63.639 68.4902 63.6592 68.3994C63.6794 68.2985 63.6895 68.2127 63.6895 68.1421C63.6895 68.0715 63.6642 68.016 63.6138 67.9756C63.5633 67.9352 63.4826 67.915 63.3716 67.915C63.2707 67.915 63.1344 67.9756 62.9629 68.0967C62.8014 68.2178 62.6047 68.4095 62.3726 68.6719C62.09 68.9746 61.863 69.2118 61.6914 69.3833C61.5199 69.5549 61.4038 69.6558 61.3433 69.686C61.2424 69.7567 61.1213 69.8576 60.98 69.9888C60.8488 70.12 60.6974 70.2663 60.5259 70.4277C60.5057 70.4681 60.4754 70.5286 60.4351 70.6094C60.3947 70.6901 60.3291 70.7809 60.2383 70.8818C60.1979 70.7305 60.1273 70.5438 60.0264 70.3218C59.9255 70.0998 59.7943 69.8223 59.6328 69.4893ZM74.1035 69.4893C74.2246 69.2773 74.381 69.0654 74.5728 68.8535C74.7645 68.6315 75.0067 68.4045 75.2993 68.1724C75.3296 67.9705 75.3599 67.7738 75.3901 67.582C75.4204 67.3802 75.4406 67.1784 75.4507 66.9766C75.481 66.8353 75.5264 66.6688 75.5869 66.4771C75.6576 66.2853 75.7332 66.0785 75.814 65.8564C75.9048 65.6344 76.0259 65.3569 76.1772 65.0239C76.3387 64.6909 76.5456 64.3175 76.7979 63.9038C77.0098 63.6717 77.2318 63.4194 77.4639 63.147C77.696 62.8644 77.9281 62.5819 78.1602 62.2993C78.2712 62.2085 78.3923 62.1227 78.5234 62.042C78.6546 61.9613 78.7858 61.8704 78.917 61.7695C79.0381 61.7292 79.1743 61.6938 79.3257 61.6636C79.4771 61.6333 79.6436 61.6182 79.8252 61.6182C80.0775 61.6182 80.2793 61.6434 80.4307 61.6938C80.5921 61.7443 80.7233 61.8301 80.8242 61.9512C80.8949 62.0319 80.9604 62.153 81.021 62.3145C81.0916 62.4759 81.1572 62.6727 81.2178 62.9048C81.248 63.1066 81.2834 63.3286 81.3237 63.5708C81.3237 63.5103 81.3035 63.5355 81.2632 63.6465C81.2329 63.7575 81.1825 63.9341 81.1118 64.1763L80.9756 64.6606C80.8343 65.145 80.5164 65.7051 80.022 66.3408C79.5275 66.9766 78.8615 67.7031 78.0239 68.5205C77.9533 68.5911 77.8927 68.682 77.8423 68.793C77.7918 68.8939 77.7666 69.0049 77.7666 69.126C77.7666 69.3379 77.8019 69.5246 77.8726 69.686C77.9533 69.8475 78.0643 69.9686 78.2056 70.0493C78.2863 70.1099 78.4124 70.1704 78.584 70.231C78.7656 70.2915 78.9775 70.347 79.2197 70.3975C79.6133 70.3672 79.9715 70.3016 80.2944 70.2007C80.6174 70.0998 80.9049 69.9787 81.1572 69.8374C81.2077 69.8071 81.2884 69.7668 81.3994 69.7163C81.5104 69.6558 81.6214 69.5801 81.7324 69.4893C81.8636 69.7819 81.9797 70.0443 82.0806 70.2764C82.1815 70.5085 82.2622 70.7103 82.3228 70.8818C81.7476 71.4469 81.2228 71.8758 80.7485 72.1685C80.2843 72.451 79.8555 72.5923 79.4619 72.5923C79.3005 72.6932 79.1138 72.7689 78.9019 72.8193C78.7 72.8597 78.4578 72.8799 78.1753 72.8799C77.8019 72.8799 77.4689 72.8244 77.1763 72.7134C76.8937 72.6024 76.6566 72.4409 76.4648 72.229C76.3639 72.1281 76.263 71.9818 76.1621 71.79C76.0612 71.5882 75.9552 71.3511 75.8442 71.0786C75.7534 70.8566 75.6676 70.6951 75.5869 70.5942C75.5062 70.4832 75.4154 70.4277 75.3145 70.4277C75.2337 70.4277 75.1429 70.4681 75.042 70.5488C74.9411 70.6195 74.8301 70.7305 74.709 70.8818C74.6686 70.7305 74.598 70.5438 74.4971 70.3218C74.3962 70.0998 74.265 69.8223 74.1035 69.4893ZM78.9473 64.5698C78.7253 64.5698 78.4276 64.8625 78.0542 65.4478C77.6808 66.0229 77.4941 66.4468 77.4941 66.7192C77.4941 66.7798 77.5042 66.8252 77.5244 66.8555C77.5547 66.8757 77.6102 66.8857 77.6909 66.8857C77.8019 66.8857 77.8927 66.8302 77.9634 66.7192C78.034 66.5981 78.0996 66.4871 78.1602 66.3862C78.2712 66.2853 78.3771 66.1794 78.478 66.0684C78.589 65.9473 78.695 65.8312 78.7959 65.7202C78.917 65.5789 79.0078 65.4377 79.0684 65.2964C79.1289 65.1551 79.1592 65.0138 79.1592 64.8726C79.1592 64.7817 79.139 64.7111 79.0986 64.6606C79.0684 64.6001 79.0179 64.5698 78.9473 64.5698ZM81.7324 69.4893C81.8031 69.4085 81.8888 69.2975 81.9897 69.1562C82.0907 69.0049 82.2168 68.8333 82.3682 68.6416C82.4993 68.5306 82.6507 68.3843 82.8223 68.2026C82.9938 68.0109 83.1855 67.7738 83.3975 67.4912C83.4782 67.3197 83.5741 67.133 83.6851 66.9312C83.8062 66.7192 83.9424 66.472 84.0938 66.1895C84.1543 65.917 84.2956 65.6092 84.5176 65.2661C84.7396 64.9129 85.0474 64.5194 85.4409 64.0854C85.9959 63.4699 86.5762 62.814 87.1816 62.1177C87.4945 61.6535 87.8325 61.3104 88.1958 61.0884C88.5692 60.8664 88.9678 60.7554 89.3916 60.7554C89.6742 60.7554 89.8861 60.8815 90.0273 61.1338C90.1787 61.3861 90.2544 61.7594 90.2544 62.2539C90.2544 62.4355 90.1283 62.7181 89.876 63.1016C89.6338 63.485 89.2604 63.9744 88.7559 64.5698C88.443 64.9432 88.1151 65.3166 87.772 65.6899C87.4289 66.0532 87.0908 66.4266 86.7578 66.8101C86.6064 66.9513 86.445 67.1077 86.2734 67.2793C86.112 67.4408 85.9354 67.6224 85.7437 67.8242C85.6831 68.0361 85.6175 68.2733 85.5469 68.5356C85.5469 68.9292 85.5721 69.2723 85.6226 69.5649C85.673 69.8475 85.7487 70.0897 85.8496 70.2915C85.9001 70.3621 86.006 70.5236 86.1675 70.7759C86.339 71.0181 86.5661 71.3359 86.8486 71.7295C86.9193 71.8304 87.005 71.9313 87.106 72.0322C87.2069 72.1331 87.3229 72.234 87.4541 72.335C87.6055 72.2744 87.8981 72.007 88.332 71.5327C88.766 71.0483 89.3512 70.3672 90.0879 69.4893L90.6631 70.8818C90.5924 70.9626 90.4562 71.1291 90.2544 71.3813C90.0627 71.6235 89.8255 71.9465 89.543 72.3501C89.2201 72.7739 88.8921 73.228 88.5591 73.7124C88.5591 73.8133 88.6045 73.9294 88.6953 74.0605C88.7962 74.1917 88.9173 74.3381 89.0586 74.4995C89.321 74.8022 89.543 75.1958 89.7246 75.6802C89.9163 76.1646 90.0627 76.7549 90.1636 77.4512C90.1535 77.5016 90.1383 77.5824 90.1182 77.6934C90.1081 77.8044 90.098 77.9305 90.0879 78.0718C89.9668 79.2323 89.2503 80.3927 87.9385 81.5532C86.6367 82.7137 85.4056 83.2939 84.2451 83.2939C83.7103 83.2939 83.2814 83.2233 82.9585 83.082C82.6457 82.9508 82.4237 82.749 82.2925 82.4766C82.242 82.3454 82.2017 82.0881 82.1714 81.7046C82.1411 81.3211 82.126 80.8115 82.126 80.1758C82.126 80.1152 82.1562 79.9941 82.2168 79.8125C82.2673 79.641 82.3581 79.4038 82.4893 79.1011C82.5599 78.8993 82.6558 78.6873 82.7769 78.4653C82.908 78.2534 83.0443 78.0213 83.1855 77.769C83.3268 77.5571 83.4681 77.3503 83.6094 77.1484C83.7607 76.9466 83.902 76.7448 84.0332 76.543C84.3561 76.1898 84.6437 75.877 84.896 75.6045C85.0877 75.4128 85.234 75.2311 85.335 75.0596C85.446 74.888 85.5015 74.7367 85.5015 74.6055C85.1584 74.1312 84.8153 73.6771 84.4722 73.2432C84.1089 72.7891 83.8112 72.335 83.5791 71.8809C83.3571 71.4268 83.2108 70.9626 83.1401 70.4883C83.13 70.4277 83.0897 70.3319 83.019 70.2007C82.7869 70.4227 82.5599 70.6497 82.3379 70.8818C82.2975 70.7305 82.2269 70.5438 82.126 70.3218C82.0251 70.0998 81.8939 69.8223 81.7324 69.4893ZM86.6973 75.8467C86.6367 75.8467 86.4954 75.988 86.2734 76.2705C86.0615 76.5531 85.7689 76.9718 85.3955 77.5269C85.1836 77.8599 84.9717 78.1979 84.7598 78.541C84.5479 78.8841 84.3258 79.2222 84.0938 79.5552C84.013 79.6662 83.897 79.9285 83.7456 80.3423C83.5942 80.756 83.5186 81.0184 83.5186 81.1294C83.5186 81.3211 83.569 81.4624 83.6699 81.5532C83.7809 81.644 83.9474 81.6895 84.1694 81.6895C84.9465 81.6895 85.7437 81.2656 86.561 80.418C87.3784 79.5804 87.7871 78.7731 87.7871 77.9961C87.7871 77.8346 87.7568 77.6429 87.6963 77.4209C87.6357 77.209 87.555 76.9718 87.4541 76.7095C87.3229 76.4168 87.1968 76.1999 87.0757 76.0586C86.9546 75.9173 86.8285 75.8467 86.6973 75.8467ZM90.0576 69.4893C90.2191 69.2773 90.3805 69.0553 90.542 68.8232C91.2786 68.2178 91.8791 67.6375 92.3433 67.0825C92.8175 66.5174 93.1606 65.9927 93.3726 65.5083L93.2212 64.7817C93.3524 64.5295 93.6753 64.2318 94.1899 63.8887C94.7147 63.5456 95.1385 63.374 95.4614 63.374C95.8045 63.374 96.0921 63.4749 96.3242 63.6768C96.5664 63.8786 96.7985 64.0905 97.0205 64.3125C97.1315 64.3831 97.2122 64.4386 97.2627 64.479C97.6663 64.7817 97.9691 65.2005 98.1709 65.7354C98.3727 66.2702 98.4736 66.9211 98.4736 67.688C98.4736 68.0916 98.3172 68.6719 98.0044 69.4287C97.6916 70.1755 97.5352 70.7406 97.5352 71.124C97.5352 71.1745 97.5503 71.2148 97.5806 71.2451C97.6209 71.2754 97.6714 71.2905 97.7319 71.2905C97.8631 71.2905 98.0195 71.235 98.2012 71.124C98.3828 71.0029 98.5796 70.8415 98.7915 70.6396C99.3263 70.1149 99.6493 69.8273 99.7603 69.7769C99.8713 69.7163 100.007 69.6204 100.169 69.4893C100.25 69.6911 100.346 69.908 100.457 70.1401C100.568 70.3722 100.674 70.6195 100.774 70.8818C100.684 70.9626 100.578 71.0584 100.457 71.1694C100.346 71.2804 100.209 71.4066 100.048 71.5479C99.7048 71.8001 99.2557 72.1079 98.7007 72.4712C98.1558 72.8244 97.4998 73.2331 96.7329 73.6973C96.5311 73.8285 96.299 73.9344 96.0366 74.0151C95.6128 74.0151 95.2949 73.9546 95.083 73.8335C94.8711 73.7023 94.7651 73.4954 94.7651 73.2129C94.7651 73.1019 94.7853 72.9757 94.8257 72.8345C94.8761 72.6831 94.9417 72.5216 95.0225 72.3501C95.083 72.2189 95.1486 72.0877 95.2192 71.9565C95.2899 71.8153 95.3504 71.674 95.4009 71.5327C95.6229 70.897 95.7894 70.3066 95.9004 69.7617C96.0215 69.2168 96.082 68.7274 96.082 68.2935C96.082 67.7586 95.9963 67.3499 95.8247 67.0674C95.6632 66.7848 95.416 66.6234 95.083 66.583C94.861 66.7041 94.6188 66.8757 94.3564 67.0977C94.0941 67.3197 93.8267 67.5972 93.5542 67.9302C93.2616 68.2935 92.9992 68.5911 92.7671 68.8232C92.535 69.0553 92.3433 69.2118 92.1919 69.2925C92.1011 69.4438 91.9548 69.6154 91.7529 69.8071C91.5511 69.9989 91.2837 70.2057 90.9507 70.4277C90.9305 70.4681 90.9002 70.5286 90.8599 70.6094C90.8195 70.6901 90.7539 70.7809 90.6631 70.8818C90.5824 70.6497 90.4915 70.4227 90.3906 70.2007C90.2897 69.9686 90.1787 69.7314 90.0576 69.4893ZM100.169 69.4893C100.24 69.4186 100.315 69.3278 100.396 69.2168C100.467 69.0957 100.552 68.9645 100.653 68.8232L101.819 68.021C101.96 67.8494 102.177 67.6325 102.47 67.3701C102.762 67.0977 103.126 66.7697 103.56 66.3862C103.61 66.2752 103.691 66.1491 103.802 66.0078C103.923 65.8564 104.064 65.7101 104.226 65.5688C104.367 65.4377 104.508 65.3166 104.649 65.2056C104.791 65.0845 104.922 64.9684 105.043 64.8574C105.194 64.7061 105.336 64.5547 105.467 64.4033C105.608 64.252 105.749 64.1056 105.891 63.9644C106.052 63.8231 106.219 63.7121 106.39 63.6313C106.562 63.5506 106.748 63.5103 106.95 63.5103C107.172 63.5103 107.339 63.5405 107.45 63.6011C107.571 63.6515 107.636 63.7272 107.646 63.8281C107.546 64.0602 107.44 64.2923 107.329 64.5244L107.419 64.6606C107.863 64.4891 108.212 64.363 108.464 64.2822C108.716 64.2015 108.878 64.1611 108.948 64.1611C109.685 64.1611 110.235 64.3882 110.598 64.8423C110.972 65.2863 111.158 65.9624 111.158 66.8706C111.158 67.0422 111.138 67.244 111.098 67.4761C111.057 67.7082 110.992 67.9604 110.901 68.2329C110.8 68.5356 110.689 68.7879 110.568 68.9897C110.457 69.1916 110.351 69.3379 110.25 69.4287C110.29 69.5599 110.336 69.6558 110.386 69.7163C110.437 69.7668 110.502 69.792 110.583 69.792C110.664 69.792 110.744 69.7668 110.825 69.7163C110.916 69.6659 111.022 69.5902 111.143 69.4893C111.244 69.7113 111.34 69.9434 111.431 70.1855C111.532 70.4176 111.632 70.6497 111.733 70.8818C111.552 71.0433 111.375 71.1997 111.204 71.3511C111.032 71.5024 110.85 71.6488 110.659 71.79C110.427 71.9818 110.205 72.123 109.993 72.2139C109.791 72.2946 109.589 72.335 109.387 72.335C109.155 72.335 108.963 72.2795 108.812 72.1685C108.661 72.0575 108.54 71.901 108.449 71.6992C108.196 72.0322 107.889 72.34 107.525 72.6226C107.172 72.895 106.779 73.1221 106.345 73.3037C106.092 73.4248 105.86 73.5207 105.648 73.5913C105.447 73.6519 105.26 73.6821 105.088 73.6821C105.038 73.6821 104.937 73.7023 104.786 73.7427C104.644 73.783 104.528 73.8032 104.438 73.8032C103.862 73.8032 103.343 73.561 102.878 73.0767C102.414 72.5923 102.182 72.0524 102.182 71.457C102.182 71.2148 102.238 70.897 102.349 70.5034C102.46 70.0998 102.515 69.8626 102.515 69.792C102.515 69.7214 102.49 69.6659 102.439 69.6255C102.399 69.575 102.339 69.5498 102.258 69.5498C102.207 69.5498 102.086 69.6255 101.895 69.7769C101.703 69.9282 101.43 70.1452 101.077 70.4277C101.047 70.4681 101.012 70.5286 100.971 70.6094C100.931 70.6901 100.865 70.7809 100.774 70.8818C100.694 70.6497 100.603 70.4176 100.502 70.1855C100.401 69.9434 100.29 69.7113 100.169 69.4893ZM107.45 66.7192C107.399 66.7293 107.324 66.7848 107.223 66.8857C107.132 66.9766 107.041 67.0926 106.95 67.2339C106.809 67.466 106.647 67.7183 106.466 67.9907C106.355 68.1118 106.234 68.2077 106.103 68.2783C105.981 68.3389 105.84 68.3843 105.679 68.4146C105.578 68.4246 105.472 68.5256 105.361 68.7173C105.25 68.8989 105.139 69.1663 105.028 69.5195C104.917 69.8324 104.836 70.0998 104.786 70.3218C104.735 70.5438 104.71 70.7305 104.71 70.8818C104.71 71.1644 104.781 71.3763 104.922 71.5176C105.063 71.6589 105.28 71.7295 105.573 71.7295C106.037 71.7295 106.461 71.6034 106.844 71.3511C107.238 71.0887 107.606 70.7002 107.949 70.1855C108.111 69.9938 108.262 69.8122 108.403 69.6406C108.484 69.5801 108.55 69.4842 108.6 69.353C108.651 69.2118 108.701 69.0402 108.751 68.8384L109.024 67.9756C108.933 67.6729 108.847 67.4357 108.767 67.2642C108.686 67.0825 108.605 66.9715 108.524 66.9312C108.474 66.9009 108.363 66.8706 108.191 66.8403C108.02 66.8 107.773 66.7596 107.45 66.7192Z" fill="#BBBBBB"/>
<path d="M132 67.7C145.9 64.2 166.5 71.7 172.2 83.8C180 100.2 165.4 109.7 159.3 100.8C151 88.5 165.2 78 171.6 75.6C186.7 70.1 201.9 73.8 216.5 66C225 61.5 235 54 237.2 44.1C240.3 30.3 224.5 14 210.7 15.4C203.6 16.2 195.5 21.2 195.2 29.1C194.8 37.1 198.1 44.4 206.7 45.3C217.7 46.5 228 40.1 234.6 31.7C241 23.7 245.6 11.8 245 1" stroke="#BBBBBB" stroke-linecap="round" stroke-linejoin="round" stroke-dasharray="4.01 4.01"/>
</svg>
