<svg width="154" height="141" viewBox="0 0 154 141" fill="none" xmlns="http://www.w3.org/2000/svg">
<path d="M14.8037 25.8818C14.501 26.1139 14.1226 26.3813 13.6685 26.6841C13.2244 26.9868 12.6997 27.3198 12.0942 27.6831C11.5493 27.9959 11.0649 28.2684 10.6411 28.5005C10.2274 28.7225 9.87923 28.889 9.59668 29C9.18294 29.1917 8.74398 29.328 8.27979 29.4087C7.81559 29.4995 7.34131 29.5449 6.85693 29.5449C6.70557 29.5449 6.53402 29.5197 6.34229 29.4692C6.16064 29.4289 5.96387 29.3784 5.75195 29.3179C5.48958 29.2472 5.26758 29.1867 5.08594 29.1362C4.9043 29.0858 4.75293 29.0555 4.63184 29.0454L4.4502 28.8638L4.01123 28.8032C3.8195 28.7931 3.5874 28.6973 3.31494 28.5156C3.05257 28.334 2.76497 28.0817 2.45215 27.7588C2.14941 27.4561 1.90218 27.1685 1.71045 26.896C1.52881 26.6235 1.39762 26.3763 1.31689 26.1543L0.908203 24.8525C0.766927 24.4085 0.66097 24.0503 0.590332 23.7778C0.519694 23.5054 0.489421 23.3288 0.499512 23.248L0.666016 22.5669C0.585286 22.3348 0.519694 22.1431 0.469238 21.9917C0.428874 21.8403 0.408691 21.7243 0.408691 21.6436C0.408691 21.5628 0.433919 21.3156 0.484375 20.9019C0.534831 20.4881 0.605469 19.9129 0.696289 19.1763C0.766927 19.035 0.842611 18.8634 0.92334 18.6616C1.00407 18.4598 1.07975 18.2327 1.15039 17.9805L1.10498 17.6475C1.10498 17.5667 1.12012 17.4759 1.15039 17.375C1.19076 17.264 1.24121 17.1429 1.30176 17.0117C1.53385 16.5173 1.76595 16.0177 1.99805 15.5132C2.23014 15.0086 2.46224 14.5192 2.69434 14.0449C2.89616 13.6816 3.15348 13.3083 3.46631 12.9248C3.78923 12.5413 4.15755 12.1427 4.57129 11.729C4.66211 11.6281 4.77311 11.4969 4.9043 11.3354C5.03548 11.174 5.19189 10.9974 5.37354 10.8057C5.54508 10.7048 5.75195 10.5534 5.99414 10.3516C6.24642 10.1396 6.54411 9.87223 6.88721 9.54932C6.98812 9.50895 7.10921 9.45345 7.25049 9.38281C7.39176 9.31217 7.56331 9.2264 7.76514 9.12549C7.81559 9.09521 7.87614 9.04476 7.94678 8.97412C8.02751 8.90348 8.11833 8.8278 8.21924 8.74707C8.33024 8.64616 8.73389 8.49479 9.43018 8.29297C10.1265 8.09115 10.5806 7.99023 10.7925 7.99023C11.2567 7.99023 11.6502 8.02555 11.9731 8.09619C12.2961 8.15674 12.5534 8.25765 12.7451 8.39893L13.2295 8.48975C13.6331 8.58057 13.9308 8.88835 14.1226 9.41309C14.3143 9.93783 14.4102 10.6947 14.4102 11.6836C14.4102 12.1478 14.4051 12.5212 14.395 12.8037C14.3849 13.0762 14.3698 13.2629 14.3496 13.3638C14.2891 13.6665 14.2184 14.05 14.1377 14.5142C14.0671 14.9683 13.9712 15.498 13.8501 16.1035C13.84 16.265 13.7694 16.5324 13.6382 16.9058C13.5171 17.269 13.3556 17.7231 13.1538 18.2681C12.9419 18.8634 12.7603 19.3175 12.6089 19.6304C12.4575 19.9331 12.3314 20.0996 12.2305 20.1299C11.8268 20.2308 11.3929 20.3418 10.9287 20.4629C10.7067 20.4629 10.5503 20.4478 10.4595 20.4175C10.3687 20.3771 10.3232 20.3166 10.3232 20.2358C10.3232 20.1652 10.3384 20.0542 10.3687 19.9028C10.409 19.7515 10.4292 19.6455 10.4292 19.585C10.3989 19.2015 10.3687 18.813 10.3384 18.4194C10.3384 18.2782 10.3787 18.0007 10.4595 17.5869C10.5402 17.1732 10.6613 16.6434 10.8228 15.9976C10.9943 15.2912 11.1457 14.7362 11.2769 14.3325C11.408 13.9188 11.514 13.6615 11.5947 13.5605C11.8874 13.2881 12.0993 13.0308 12.2305 12.7886C12.3717 12.5363 12.4424 12.3092 12.4424 12.1074C12.4424 11.8249 12.3717 11.5776 12.2305 11.3657C12.0993 11.1538 11.8975 10.9924 11.625 10.8813C11.3626 10.8208 11.0952 10.7653 10.8228 10.7148C10.5604 10.6543 10.298 10.5837 10.0356 10.5029C9.82373 10.5837 9.632 10.6442 9.46045 10.6846C9.29899 10.7249 9.15771 10.7603 9.03662 10.7905C8.36051 10.9015 7.70964 11.2144 7.08398 11.729C6.46842 12.2437 5.87809 12.9551 5.31299 13.8633C4.8488 14.6504 4.47542 15.4425 4.19287 16.2397C3.91032 17.0269 3.71859 17.819 3.61768 18.6162C3.57731 18.8584 3.52686 19.1611 3.46631 19.5244C3.40576 19.8776 3.31999 20.2964 3.20898 20.7808C3.2998 21.0835 3.38053 21.361 3.45117 21.6133L3.2998 22.9907C3.2998 23.0412 3.34521 23.1471 3.43604 23.3086C3.52686 23.46 3.66813 23.687 3.85986 23.9897C3.97087 24.1613 4.07178 24.3631 4.1626 24.5952C4.25342 24.8273 4.32406 25.0897 4.37451 25.3823C4.39469 25.453 4.43001 25.5286 4.48047 25.6094C4.54102 25.6901 4.60661 25.7557 4.67725 25.8062C4.82861 25.9373 4.97493 26.0534 5.11621 26.1543C5.55013 26.6185 6.00928 26.9717 6.49365 27.2139C6.98812 27.446 7.51286 27.562 8.06787 27.562C8.11833 27.562 8.30501 27.5368 8.62793 27.4863C8.96094 27.4359 9.41504 27.3551 9.99023 27.2441C10.0911 27.1735 10.2223 27.1029 10.3838 27.0322C10.5553 26.9616 10.7572 26.8859 10.9893 26.8052C11.1911 26.6034 11.3929 26.4621 11.5947 26.3813C11.7965 26.2905 11.9832 26.2451 12.1548 26.2451C12.2052 26.1745 12.2658 26.0887 12.3364 25.9878C12.4172 25.8869 12.5181 25.7759 12.6392 25.6548C12.9419 25.5337 13.2194 25.3773 13.4717 25.1855C13.724 24.9837 13.9661 24.7516 14.1982 24.4893C14.6019 25.3672 14.8037 25.8314 14.8037 25.8818ZM14.1982 24.4893C14.3597 24.2773 14.5212 24.0553 14.6826 23.8232C15.4193 23.2178 16.0197 22.6375 16.4839 22.0825C16.9582 21.5174 17.3013 20.9927 17.5132 20.5083L17.3618 19.7817C17.493 19.5295 17.8159 19.2318 18.3306 18.8887C18.8553 18.5456 19.2791 18.374 19.6021 18.374C19.9451 18.374 20.2327 18.4749 20.4648 18.6768C20.707 18.8786 20.9391 19.0905 21.1611 19.3125C21.2721 19.3831 21.3529 19.4386 21.4033 19.479C21.807 19.7817 22.1097 20.2005 22.3115 20.7354C22.5133 21.2702 22.6143 21.9211 22.6143 22.688C22.6143 23.0916 22.4578 23.6719 22.145 24.4287C21.8322 25.1755 21.6758 25.7406 21.6758 26.124C21.6758 26.1745 21.6909 26.2148 21.7212 26.2451C21.7616 26.2754 21.812 26.2905 21.8726 26.2905C22.0037 26.2905 22.1602 26.235 22.3418 26.124C22.5234 26.0029 22.7202 25.8415 22.9321 25.6396C23.467 25.1149 23.7899 24.8273 23.9009 24.7769C24.0119 24.7163 24.1481 24.6204 24.3096 24.4893C24.3903 24.6911 24.4862 24.908 24.5972 25.1401C24.7082 25.3722 24.8141 25.6195 24.915 25.8818C24.8242 25.9626 24.7183 26.0584 24.5972 26.1694C24.4862 26.2804 24.3499 26.4066 24.1885 26.5479C23.8454 26.8001 23.3963 27.1079 22.8413 27.4712C22.2964 27.8244 21.6405 28.2331 20.8735 28.6973C20.6717 28.8285 20.4396 28.9344 20.1772 29.0151C19.7534 29.0151 19.4355 28.9546 19.2236 28.8335C19.0117 28.7023 18.9058 28.4954 18.9058 28.2129C18.9058 28.1019 18.9259 27.9757 18.9663 27.8345C19.0168 27.6831 19.0824 27.5216 19.1631 27.3501C19.2236 27.2189 19.2892 27.0877 19.3599 26.9565C19.4305 26.8153 19.491 26.674 19.5415 26.5327C19.7635 25.897 19.93 25.3066 20.041 24.7617C20.1621 24.2168 20.2227 23.7274 20.2227 23.2935C20.2227 22.7586 20.1369 22.3499 19.9653 22.0674C19.8039 21.7848 19.5566 21.6234 19.2236 21.583C19.0016 21.7041 18.7594 21.8757 18.4971 22.0977C18.2347 22.3197 17.9673 22.5972 17.6948 22.9302C17.4022 23.2935 17.1398 23.5911 16.9077 23.8232C16.6756 24.0553 16.4839 24.2118 16.3325 24.2925C16.2417 24.4438 16.0954 24.6154 15.8936 24.8071C15.6917 24.9989 15.4243 25.2057 15.0913 25.4277C15.0711 25.4681 15.0409 25.5286 15.0005 25.6094C14.9601 25.6901 14.8945 25.7809 14.8037 25.8818C14.723 25.6497 14.6322 25.4227 14.5312 25.2007C14.4303 24.9686 14.3193 24.7314 14.1982 24.4893ZM24.3096 24.4893C24.3802 24.4186 24.4559 24.3278 24.5366 24.2168C24.6073 24.0957 24.693 23.9645 24.7939 23.8232L25.9595 23.021C26.1007 22.8494 26.3177 22.6325 26.6104 22.3701C26.903 22.0977 27.2663 21.7697 27.7002 21.3862C27.7507 21.2752 27.8314 21.1491 27.9424 21.0078C28.0635 20.8564 28.2048 20.7101 28.3662 20.5688C28.5075 20.4377 28.6488 20.3166 28.79 20.2056C28.9313 20.0845 29.0625 19.9684 29.1836 19.8574C29.335 19.7061 29.4762 19.5547 29.6074 19.4033C29.7487 19.252 29.89 19.1056 30.0312 18.9644C30.1927 18.8231 30.3592 18.7121 30.5308 18.6313C30.7023 18.5506 30.889 18.5103 31.0908 18.5103C31.3128 18.5103 31.4793 18.5405 31.5903 18.6011C31.7114 18.6515 31.777 18.7272 31.7871 18.8281C31.6862 19.0602 31.5802 19.2923 31.4692 19.5244L31.5601 19.6606C32.0041 19.4891 32.3522 19.363 32.6045 19.2822C32.8568 19.2015 33.0182 19.1611 33.0889 19.1611C33.8255 19.1611 34.3755 19.3882 34.7388 19.8423C35.1121 20.2863 35.2988 20.9624 35.2988 21.8706C35.2988 22.0422 35.2786 22.244 35.2383 22.4761C35.1979 22.7082 35.1323 22.9604 35.0415 23.2329C34.9406 23.5356 34.8296 23.7879 34.7085 23.9897C34.5975 24.1916 34.4915 24.3379 34.3906 24.4287C34.431 24.5599 34.4764 24.6558 34.5269 24.7163C34.5773 24.7668 34.6429 24.792 34.7236 24.792C34.8044 24.792 34.8851 24.7668 34.9658 24.7163C35.0566 24.6659 35.1626 24.5902 35.2837 24.4893C35.3846 24.7113 35.4805 24.9434 35.5713 25.1855C35.6722 25.4176 35.7731 25.6497 35.874 25.8818C35.6924 26.0433 35.5158 26.1997 35.3442 26.3511C35.1727 26.5024 34.991 26.6488 34.7993 26.79C34.5672 26.9818 34.3452 27.123 34.1333 27.2139C33.9315 27.2946 33.7297 27.335 33.5278 27.335C33.2957 27.335 33.104 27.2795 32.9526 27.1685C32.8013 27.0575 32.6802 26.901 32.5894 26.6992C32.3371 27.0322 32.0293 27.34 31.666 27.6226C31.3128 27.895 30.9193 28.1221 30.4854 28.3037C30.2331 28.4248 30.001 28.5207 29.7891 28.5913C29.5872 28.6519 29.4006 28.6821 29.229 28.6821C29.1785 28.6821 29.0776 28.7023 28.9263 28.7427C28.785 28.783 28.6689 28.8032 28.5781 28.8032C28.0029 28.8032 27.4832 28.561 27.019 28.0767C26.5549 27.5923 26.3228 27.0524 26.3228 26.457C26.3228 26.2148 26.3783 25.897 26.4893 25.5034C26.6003 25.0998 26.6558 24.8626 26.6558 24.792C26.6558 24.7214 26.6305 24.6659 26.5801 24.6255C26.5397 24.575 26.4792 24.5498 26.3984 24.5498C26.348 24.5498 26.2269 24.6255 26.0352 24.7769C25.8434 24.9282 25.571 25.1452 25.2178 25.4277C25.1875 25.4681 25.1522 25.5286 25.1118 25.6094C25.0715 25.6901 25.0059 25.7809 24.915 25.8818C24.8343 25.6497 24.7435 25.4176 24.6426 25.1855C24.5417 24.9434 24.4307 24.7113 24.3096 24.4893ZM31.5903 21.7192C31.5399 21.7293 31.4642 21.7848 31.3633 21.8857C31.2725 21.9766 31.1816 22.0926 31.0908 22.2339C30.9495 22.466 30.7881 22.7183 30.6064 22.9907C30.4954 23.1118 30.3743 23.2077 30.2432 23.2783C30.1221 23.3389 29.9808 23.3843 29.8193 23.4146C29.7184 23.4246 29.6125 23.5256 29.5015 23.7173C29.3905 23.8989 29.2795 24.1663 29.1685 24.5195C29.0575 24.8324 28.9767 25.0998 28.9263 25.3218C28.8758 25.5438 28.8506 25.7305 28.8506 25.8818C28.8506 26.1644 28.9212 26.3763 29.0625 26.5176C29.2038 26.6589 29.4207 26.7295 29.7134 26.7295C30.1776 26.7295 30.6014 26.6034 30.9849 26.3511C31.3784 26.0887 31.7467 25.7002 32.0898 25.1855C32.2513 24.9938 32.4027 24.8122 32.5439 24.6406C32.6247 24.5801 32.6903 24.4842 32.7407 24.353C32.7912 24.2118 32.8416 24.0402 32.8921 23.8384L33.1646 22.9756C33.0737 22.6729 32.988 22.4357 32.9072 22.2642C32.8265 22.0825 32.7458 21.9715 32.665 21.9312C32.6146 21.9009 32.5036 21.8706 32.332 21.8403C32.1605 21.8 31.9132 21.7596 31.5903 21.7192ZM35.7529 23.8232L37.1304 22.915C37.1808 22.8646 37.2414 22.799 37.312 22.7183C37.3826 22.6274 37.4634 22.5013 37.5542 22.3398C37.6248 22.2087 37.7157 22.0977 37.8267 22.0068C37.9478 21.916 38.084 21.8353 38.2354 21.7646C38.3161 21.6637 38.4321 21.5376 38.5835 21.3862C38.7349 21.2349 38.9266 21.0583 39.1587 20.8564C39.2697 20.7959 39.411 20.7101 39.5825 20.5991C39.7541 20.478 39.9408 20.3216 40.1426 20.1299C41.0609 19.262 41.8631 18.6112 42.5493 18.1772C43.2456 17.7433 43.8309 17.5264 44.3052 17.5264C44.5675 17.5264 44.7593 17.5819 44.8804 17.6929C45.0116 17.8039 45.0771 17.9603 45.0771 18.1621C45.0771 18.374 45.0368 18.5607 44.9561 18.7222C44.8854 18.8836 44.7694 19.0199 44.6079 19.1309C44.3556 19.3125 44.0832 19.5143 43.7905 19.7363C43.6291 19.9482 43.4323 20.1753 43.2002 20.4175C42.9681 20.6496 42.6956 20.8817 42.3828 21.1138C42.2819 21.245 42.1961 21.361 42.1255 21.4619C42.075 21.5124 41.9792 21.6032 41.8379 21.7344C41.6966 21.8656 41.5099 22.0169 41.2778 22.1885C41.1769 22.4105 40.9549 22.6981 40.6118 23.0513C40.2788 23.4045 39.8298 23.8283 39.2646 24.3228C39.194 24.3934 39.0679 24.5549 38.8862 24.8071C38.7046 25.0594 38.4674 25.3924 38.1748 25.8062L38.2808 25.9424C38.5028 25.8717 38.7349 25.7507 38.9771 25.5791C39.2192 25.4076 39.4867 25.1805 39.7793 24.8979C40.1224 24.5851 40.3999 24.3328 40.6118 24.1411C40.8338 23.9393 40.9902 23.8081 41.0811 23.7476C41.1517 23.7072 41.2223 23.6668 41.293 23.6265C41.3636 23.5861 41.4443 23.5356 41.5352 23.4751C41.9993 22.9201 42.4333 22.5114 42.8369 22.249C43.2406 21.9766 43.6139 21.8403 43.957 21.8403C44.1689 21.8403 44.3304 21.9261 44.4414 22.0977C44.5524 22.2591 44.618 22.5063 44.6382 22.8394C44.618 23.3439 44.6079 23.8283 44.6079 24.2925C44.5978 24.6154 44.6836 24.908 44.8652 25.1704C45.057 25.4227 45.3042 25.5488 45.6069 25.5488C45.6978 25.5488 45.7835 25.5236 45.8643 25.4731C45.9551 25.4227 46.0459 25.3571 46.1367 25.2764C46.2074 25.1855 46.2729 25.0998 46.3335 25.019C46.4041 24.9383 46.4748 24.8576 46.5454 24.7769C46.5858 24.7567 46.6413 24.7214 46.7119 24.6709C46.7926 24.6204 46.8683 24.5599 46.939 24.4893C47.0802 24.792 47.1963 25.0594 47.2871 25.2915C47.388 25.5135 47.4637 25.7103 47.5142 25.8818C47.2821 26.0938 47.05 26.3158 46.8179 26.5479C46.5959 26.7699 46.3587 26.9818 46.1064 27.1836C45.8037 27.4157 45.5111 27.5923 45.2285 27.7134C44.946 27.8244 44.6634 27.8799 44.3809 27.8799C43.7249 27.8799 43.2204 27.6932 42.8672 27.3198C42.514 26.9465 42.3071 26.3813 42.2466 25.6245C42.2466 25.5337 42.2314 25.4429 42.2012 25.3521C42.181 25.2511 42.1305 25.1502 42.0498 25.0493C41.9993 25.0998 41.9438 25.1553 41.8833 25.2158C41.8228 25.2663 41.7521 25.3369 41.6714 25.4277C41.5402 25.5286 41.3737 25.6548 41.1719 25.8062C40.9801 25.9575 40.7531 26.1392 40.4907 26.3511C40.1375 26.7144 39.8398 27.012 39.5977 27.2441C39.3555 27.4762 39.1839 27.6427 39.083 27.7437C38.8812 27.9152 38.644 28.0868 38.3716 28.2583C38.1092 28.4299 37.8115 28.6064 37.4785 28.7881C37.2666 28.8991 37.085 28.9849 36.9336 29.0454C36.7822 29.116 36.6712 29.1514 36.6006 29.1514C36.1162 29.1514 35.758 29.0353 35.5259 28.8032C35.2938 28.561 35.1777 28.1927 35.1777 27.6982C35.1777 27.4258 35.2383 27.1685 35.3594 26.9263C35.4704 26.674 35.6419 26.4318 35.874 26.1997C35.8942 26.0685 35.9043 25.9626 35.9043 25.8818C35.9043 25.8314 35.8892 25.7809 35.8589 25.7305C35.8387 25.6699 35.8084 25.6043 35.7681 25.5337C35.7075 25.3924 35.6419 25.236 35.5713 25.0645C35.4906 24.8828 35.4048 24.6911 35.314 24.4893C35.3543 24.4489 35.4149 24.3732 35.4956 24.2622C35.5662 24.1411 35.652 23.9948 35.7529 23.8232ZM46.9238 24.4893L46.9844 24.3682C47.0449 24.2874 47.1257 24.1865 47.2266 24.0654C47.3174 23.9443 47.4284 23.8031 47.5596 23.6416C48.276 22.9756 48.9723 22.1834 49.6484 21.2651C50.3346 20.3368 51.0107 19.2721 51.6768 18.0713C51.7575 17.9603 51.8483 17.814 51.9492 17.6323C52.0501 17.4507 52.1611 17.2236 52.2822 16.9512C52.2822 16.8906 52.2671 16.8452 52.2368 16.8149C52.2065 16.7847 52.1561 16.7695 52.0854 16.7695C52.0249 16.7695 51.924 16.7897 51.7827 16.8301C51.6515 16.8604 51.5506 16.8755 51.48 16.8755H49.5879C49.5072 16.8755 49.3709 16.8704 49.1792 16.8604C48.9976 16.8503 48.8664 16.8452 48.7856 16.8452C48.6847 16.7948 48.5889 16.7544 48.498 16.7241C48.4173 16.6838 48.3366 16.6434 48.2559 16.603C48.1348 16.5627 48.0389 16.5122 47.9683 16.4517C47.9077 16.381 47.8774 16.3003 47.8774 16.2095C47.8774 15.5636 47.943 15.0692 48.0742 14.7261C48.2155 14.383 48.4274 14.2114 48.71 14.2114C48.9925 14.2114 49.2549 14.2266 49.4971 14.2568C49.7493 14.277 49.9714 14.3073 50.1631 14.3477C50.3145 14.3174 50.4557 14.2871 50.5869 14.2568C50.8594 14.2568 51.0915 14.2669 51.2832 14.2871C51.4749 14.3073 51.6213 14.3325 51.7222 14.3628C51.8534 14.3325 51.9795 14.3073 52.1006 14.2871C52.2318 14.2568 52.373 14.2266 52.5244 14.1963L53.0239 14.3477C53.3771 14.3073 53.7505 13.8128 54.144 12.8643C54.5477 11.9157 54.9766 11.4414 55.4307 11.4414C55.6729 11.4414 55.8595 11.5171 55.9907 11.6685C56.1219 11.8198 56.1875 12.0418 56.1875 12.3345C56.1875 12.5666 56.1169 12.8743 55.9756 13.2578C55.8444 13.6312 55.7687 13.9137 55.7485 14.1055C55.7687 14.1458 55.7939 14.1912 55.8242 14.2417C55.8646 14.2821 55.9201 14.3325 55.9907 14.3931C56.0513 14.4334 56.0916 14.5041 56.1118 14.605C56.1421 14.6958 56.1572 14.8118 56.1572 14.9531C56.1572 15.5586 56.127 16.0278 56.0664 16.3608C56.016 16.6838 55.9302 16.8503 55.8091 16.8604L54.7798 17.0723C54.7596 17.1732 54.7344 17.2993 54.7041 17.4507C54.6738 17.592 54.6335 17.7585 54.583 17.9502C54.4115 18.4548 54.2197 19.0955 54.0078 19.8726C53.7959 20.6496 53.5588 21.5679 53.2964 22.6274C53.1349 23.4751 53.0088 24.1613 52.918 24.686C52.8372 25.2108 52.7969 25.564 52.7969 25.7456C52.7969 25.9071 52.8221 26.0282 52.8726 26.1089C52.923 26.1896 52.9987 26.23 53.0996 26.23C53.1602 26.23 53.3771 26.0837 53.7505 25.791C54.134 25.4984 54.6637 25.0645 55.3398 24.4893L55.9302 25.8818C55.8293 25.9928 55.688 26.124 55.5063 26.2754C55.3247 26.4268 55.1077 26.5882 54.8555 26.7598C54.7546 26.8708 54.6284 26.9969 54.4771 27.1382C54.3257 27.2694 54.1592 27.4258 53.9775 27.6074C53.7959 27.8092 53.6143 28.0111 53.4326 28.2129C53.2611 28.4147 53.0845 28.6115 52.9028 28.8032C52.6606 29.0656 52.4235 29.2523 52.1914 29.3633C51.9593 29.4844 51.7424 29.5449 51.5405 29.5449C51.0965 29.5449 50.7635 29.4137 50.5415 29.1514C50.3296 28.889 50.2236 28.4904 50.2236 27.9556C50.2236 27.3703 50.2438 26.8657 50.2842 26.4419C50.3245 26.008 50.3901 25.6598 50.481 25.3975C50.5213 25.3167 50.5516 25.2461 50.5718 25.1855C50.5718 25.0846 50.5869 24.9484 50.6172 24.7769C50.6475 24.6053 50.6828 24.4035 50.7231 24.1714C50.7837 23.7778 50.8493 23.3843 50.9199 22.9907C51.0309 22.7485 51.147 22.4912 51.2681 22.2188C51.2681 22.1683 51.2277 22.1229 51.147 22.0825L50.9956 22.1733C50.8442 22.4155 50.6475 22.6729 50.4053 22.9453C50.1631 23.2077 49.8755 23.4852 49.5425 23.7778C49.0278 24.2723 48.5031 24.7718 47.9683 25.2764C47.938 25.3268 47.8825 25.4025 47.8018 25.5034C47.721 25.6043 47.6302 25.7305 47.5293 25.8818C47.4788 25.7607 47.4183 25.6094 47.3477 25.4277C47.2669 25.236 47.1862 25.019 47.1055 24.7769C47.0853 24.7163 47.0601 24.6608 47.0298 24.6104C46.9995 24.5599 46.9642 24.5195 46.9238 24.4893ZM55.3096 24.4893L55.4004 24.3833L55.4458 24.2319C55.7183 23.8586 56.1976 23.3742 56.8838 22.7788C57.57 22.1733 58.0443 21.6839 58.3066 21.3105C58.4076 21.1491 58.5236 21.033 58.6548 20.9624C58.786 20.8918 58.9172 20.8564 59.0483 20.8564C59.4015 20.8564 59.6992 20.9473 59.9414 21.1289C60.1836 21.3005 60.3451 21.5628 60.4258 21.916C60.4964 22.2288 60.562 22.5467 60.6226 22.8696C60.6831 23.1825 60.7336 23.5003 60.7739 23.8232C60.8446 24.0251 60.9303 24.3328 61.0312 24.7466C61.1322 25.1502 61.2078 25.3823 61.2583 25.4429C61.3088 25.5438 61.3844 25.6195 61.4854 25.6699C61.5863 25.7103 61.7124 25.7305 61.8638 25.7305C62.0454 25.7305 62.2321 25.7002 62.4238 25.6396C62.6156 25.569 62.8123 25.453 63.0142 25.2915C63.1655 25.1603 63.3219 25.0291 63.4834 24.8979C63.6549 24.7567 63.8215 24.6204 63.9829 24.4893L64.5884 25.8818C64.4269 26.0433 64.21 26.23 63.9375 26.4419C63.6751 26.6437 63.3573 26.8809 62.9839 27.1533C62.5701 27.4561 62.217 27.6831 61.9243 27.8345C61.6317 27.9757 61.4097 28.0464 61.2583 28.0464C60.34 28.0464 59.7446 27.9404 59.4722 27.7285C59.1997 27.5166 58.897 26.9263 58.564 25.9575C58.5236 25.8768 58.4631 25.7809 58.3823 25.6699C58.3016 25.5589 58.2108 25.4277 58.1099 25.2764C57.9888 25.0443 57.8828 24.8727 57.792 24.7617C57.7012 24.6406 57.6255 24.5801 57.5649 24.5801C57.4035 24.5801 57.1865 24.6911 56.9141 24.9131C56.6416 25.125 56.3086 25.4479 55.915 25.8818C55.8646 25.7507 55.804 25.5942 55.7334 25.4126C55.6527 25.231 55.5719 25.019 55.4912 24.7769C55.471 24.7163 55.4458 24.6608 55.4155 24.6104C55.3853 24.5599 55.3499 24.5195 55.3096 24.4893ZM61.6367 12.5464C61.889 12.5464 62.0706 12.5968 62.1816 12.6978C62.3027 12.7987 62.3633 12.945 62.3633 13.1367C62.3027 13.4193 62.2523 13.6564 62.2119 13.8481C62.111 14.2114 62.0202 14.5091 61.9395 14.7412C61.8688 14.9733 61.8133 15.1398 61.7729 15.2407C61.6821 15.4627 61.556 15.6595 61.3945 15.8311C61.2432 15.9925 61.0565 16.1388 60.8345 16.27C60.6024 16.4315 60.4056 16.5475 60.2441 16.6182C60.0928 16.6787 59.9868 16.7039 59.9263 16.6938C59.7547 16.6737 59.5882 16.6585 59.4268 16.6484C59.2754 16.6283 59.124 16.6182 58.9727 16.6182C58.8415 16.5475 58.7355 16.4113 58.6548 16.2095C58.5841 16.0076 58.5488 15.7352 58.5488 15.3921C58.5488 15.0894 58.7305 14.7109 59.0938 14.2568C59.4671 13.7926 59.7951 13.5454 60.0776 13.5151C60.2492 13.3032 60.451 13.061 60.6831 12.7886C60.784 12.7179 60.9152 12.6624 61.0767 12.6221C61.2381 12.5716 61.4248 12.5464 61.6367 12.5464ZM64.4521 23.8232L65.8296 22.915C65.88 22.8646 65.9406 22.799 66.0112 22.7183C66.0819 22.6274 66.1626 22.5013 66.2534 22.3398C66.3241 22.2087 66.4149 22.0977 66.5259 22.0068C66.647 21.916 66.7832 21.8353 66.9346 21.7646C67.0153 21.6637 67.1313 21.5376 67.2827 21.3862C67.4341 21.2349 67.6258 21.0583 67.8579 20.8564C67.9689 20.7959 68.1102 20.7101 68.2817 20.5991C68.4533 20.478 68.64 20.3216 68.8418 20.1299C69.7601 19.262 70.5623 18.6112 71.2485 18.1772C71.9448 17.7433 72.5301 17.5264 73.0044 17.5264C73.2668 17.5264 73.4585 17.5819 73.5796 17.6929C73.7108 17.8039 73.7764 17.9603 73.7764 18.1621C73.7764 18.374 73.736 18.5607 73.6553 18.7222C73.5846 18.8836 73.4686 19.0199 73.3071 19.1309C73.0549 19.3125 72.7824 19.5143 72.4897 19.7363C72.3283 19.9482 72.1315 20.1753 71.8994 20.4175C71.6673 20.6496 71.3949 20.8817 71.082 21.1138C70.9811 21.245 70.8953 21.361 70.8247 21.4619C70.7743 21.5124 70.6784 21.6032 70.5371 21.7344C70.3958 21.8656 70.2091 22.0169 69.9771 22.1885C69.8761 22.4105 69.6541 22.6981 69.311 23.0513C68.978 23.4045 68.529 23.8283 67.9639 24.3228C67.8932 24.3934 67.7671 24.5549 67.5854 24.8071C67.4038 25.0594 67.1667 25.3924 66.874 25.8062L66.98 25.9424C67.202 25.8717 67.4341 25.7507 67.6763 25.5791C67.9185 25.4076 68.1859 25.1805 68.4785 24.8979C68.8216 24.5851 69.0991 24.3328 69.311 24.1411C69.533 23.9393 69.6895 23.8081 69.7803 23.7476C69.8509 23.7072 69.9215 23.6668 69.9922 23.6265C70.0628 23.5861 70.1436 23.5356 70.2344 23.4751C70.6986 22.9201 71.1325 22.5114 71.5361 22.249C71.9398 21.9766 72.3132 21.8403 72.6562 21.8403C72.8682 21.8403 73.0296 21.9261 73.1406 22.0977C73.2516 22.2591 73.3172 22.5063 73.3374 22.8394C73.3172 23.3439 73.3071 23.8283 73.3071 24.2925C73.297 24.6154 73.3828 24.908 73.5645 25.1704C73.7562 25.4227 74.0034 25.5488 74.3062 25.5488C74.397 25.5488 74.4827 25.5236 74.5635 25.4731C74.6543 25.4227 74.7451 25.3571 74.8359 25.2764C74.9066 25.1855 74.9722 25.0998 75.0327 25.019C75.1034 24.9383 75.174 24.8576 75.2446 24.7769C75.285 24.7567 75.3405 24.7214 75.4111 24.6709C75.4919 24.6204 75.5675 24.5599 75.6382 24.4893C75.7795 24.792 75.8955 25.0594 75.9863 25.2915C76.0872 25.5135 76.1629 25.7103 76.2134 25.8818C75.9813 26.0938 75.7492 26.3158 75.5171 26.5479C75.2951 26.7699 75.0579 26.9818 74.8057 27.1836C74.5029 27.4157 74.2103 27.5923 73.9277 27.7134C73.6452 27.8244 73.3626 27.8799 73.0801 27.8799C72.4242 27.8799 71.9196 27.6932 71.5664 27.3198C71.2132 26.9465 71.0063 26.3813 70.9458 25.6245C70.9458 25.5337 70.9307 25.4429 70.9004 25.3521C70.8802 25.2511 70.8298 25.1502 70.749 25.0493C70.6986 25.0998 70.6431 25.1553 70.5825 25.2158C70.522 25.2663 70.4513 25.3369 70.3706 25.4277C70.2394 25.5286 70.0729 25.6548 69.8711 25.8062C69.6794 25.9575 69.4523 26.1392 69.1899 26.3511C68.8368 26.7144 68.5391 27.012 68.2969 27.2441C68.0547 27.4762 67.8831 27.6427 67.7822 27.7437C67.5804 27.9152 67.3433 28.0868 67.0708 28.2583C66.8084 28.4299 66.5107 28.6064 66.1777 28.7881C65.9658 28.8991 65.7842 28.9849 65.6328 29.0454C65.4814 29.116 65.3704 29.1514 65.2998 29.1514C64.8154 29.1514 64.4572 29.0353 64.2251 28.8032C63.993 28.561 63.877 28.1927 63.877 27.6982C63.877 27.4258 63.9375 27.1685 64.0586 26.9263C64.1696 26.674 64.3411 26.4318 64.5732 26.1997C64.5934 26.0685 64.6035 25.9626 64.6035 25.8818C64.6035 25.8314 64.5884 25.7809 64.5581 25.7305C64.5379 25.6699 64.5076 25.6043 64.4673 25.5337C64.4067 25.3924 64.3411 25.236 64.2705 25.0645C64.1898 24.8828 64.104 24.6911 64.0132 24.4893C64.0535 24.4489 64.1141 24.3732 64.1948 24.2622C64.2655 24.1411 64.3512 23.9948 64.4521 23.8232Z" fill="#BBBBBB"/>
<path d="M229.52 77.2C228.42 85.9 216.92 96.3 208.12 95.4C204.92 95.1 201.12 93.7 199.52 90.6C196.32 84 204.02 75.7 210.72 80.3C225.12 90.2 211.82 114.2 203.72 122.3C189.72 136.3 172.82 140.5 151.92 140C132.72 139.5 116.32 129.5 103.52 115.7C93.9197 105.4 87.9197 92.3 77.9197 82.3C68.0197 72.4 49.7197 63.9 38.3197 77C31.9197 84.5 34.8197 98.5 46.6197 95.2C59.9197 91.5 56.6197 74.8 52.5197 65.6C50.4197 60.8 47.0197 54.6 42.7197 49" stroke="#BBBBBB" stroke-linecap="round" stroke-linejoin="round" stroke-dasharray="4.01 4.01"/>
</svg>
